<?xml version="1.0" encoding="utf-8"?>
<!-- Generator: Adobe Illustrator 21.0.0, SVG Export Plug-In . SVG Version: 6.00 Build 0)  -->
<svg version="1.1" id="Layer_1" xmlns="http://www.w3.org/2000/svg" xmlns:xlink="http://www.w3.org/1999/xlink" x="0px" y="0px"
	 viewBox="0 0 337.3 223.1" style="enable-background:new 0 0 337.3 223.1;" xml:space="preserve">
<style type="text/css">
	.st0{clip-path:url(#SVGID_2_);}
	.st1{fill:#FFC229;}
	.st2{fill:none;stroke:#FFC229;stroke-width:0.34;stroke-miterlimit:10;}
	.st3{fill:#A0CC40;}
	.st4{fill:none;stroke:#A0CC40;stroke-width:0.3;stroke-miterlimit:10;}
	.st5{fill:#F37A2B;}
	.st6{fill:none;stroke:#F37A2B;stroke-width:0.29;stroke-miterlimit:10;}
	.st7{fill:#8E2431;}
	.st8{fill:none;stroke:#8E2431;stroke-width:0.31;stroke-miterlimit:10;}
	.st9{fill:#5B5B5E;}
	.st10{fill:#231F20;}
	.st11{clip-path:url(#SVGID_4_);}
</style>
<title>logo</title>
<g>
	<g id="Layer_2">
		<g id="Layer_1-2">
			<g>
				<defs>
					<path id="SVGID_1_" d="M63.8,23.7c-1.6,0.5,0,3.2,0,3.2l-2.9-0.1c0,0-1.7-2.1-2.9-1.6s0,2.6,0,2.6l-1.7,0.3l-2.2,0.2
						c0,0-2.3-3.6-4.5-2.9s0.3,3.6,0.3,3.6l-4,0.9c0,0-2.5-2.6-3.9-2.1c-2.3,0.8-0.6,3.4-0.6,3.4l-1.7,0.5c0,0-0.2-2.3-0.9-1.6
						c-0.5,0.6-0.9,1.3-1,2c0,0-1.5-2.6-3.2-2s0.2,3.9,0.2,3.9s-3.2-1.5-3.6-1c-0.7-1.8-1.9-2.1-3-1.6s0,3.6,0.1,3.9
						c0-0.1-0.3-0.6-1.4-0.6c-1.2-2.7-2.8-5.1-5.3-3.7c-2,1-0.2,6.1-0.6,4.8c-0.4-1.2-1,0.8-1,0.8s-1.2-2.9-2.6-2.2
						s-1.8,1.4-0.9,3.2c0.6,1.2-1.2,2-1.2,2s-0.8-2.6-2-2.6s-1.4,1.6-1.2,3.2c0.1,0.6,0.4,1.1,0.7,1.6L11.3,44c0,0-1.1-3.4-2.9-2.8
						c-2,0.7,1.1,6.6,1.1,6.6s-1.9-0.7-2,0.2S9,49.7,9,49.7l-0.4,2c0,0-1.2-2.4-2.6-1.7c-1.9,0.9,0.5,4.1,0.5,4.1l-0.2,2.7
						c0,0-1.1-2.5-2.6-1.8s0.6,4.4,0.6,4.4l0.6,2.3l-0.3,0.8c0,0-1.1-1.8-2.1-1.1c-0.8,0.6-1.1,1.9,1.4,6c0.3,1.9,0.4,3.8,0.4,5.8
						c-1-1.1-1.8-0.6-2.3,1c-0.6,1.8,0.3,2.5,1.9,5.1c-1.2,2.2-0.5,7.4-0.7,8.1c-0.7-2.3-0.9-4.7-1.7-3.4c-0.2,0.4,0.9,4.8,0.7,7.2
						c-0.2,0.7-0.3,0.5-0.5,0.2s-0.2-0.5-0.3,0.2c-1.4-2.7-1.1,1.3-1,2.8c0.1,1.6,1.2,4.8,1.8,7.1c0.7,2.5,5.3,11.6,6.9,11.6
						c0.8,0,0.9-0.3,0.5-1.6c2.2,2.1,1.2,3.8,4.7,5c0.9,1.3,2.4,3.7,3.4,4.8c1.2,1.4,2.4,2.7,3.8,3.8c0.9,0.7,2.6,0.2,2.1-1
						c1.5,1,3.1,2.4,4.8,3.5c1,0.8,1.9,1.9,2.9,2.5c-4.5-1.7,0.1,7,18,9.7c4.3,0.6,12.7,0,14-1.1c0.4,0.2,1.1,0,1.7,0.3
						c0.3,0.2-1,1.5,0.5,0.7c0.2,0.1-3.1,1-2.5,2.2c0.4,0.8,1.5,0.5,2.4,0.2c0.4-0.2,0.7-0.2,1.1-0.2c0.3,0.1-1.3,1,0.8,0.1
						c0.7,0.4-1.4,1.3-0.6,1.7c-0.7,0.5-2.2,1.9-1.2,2.7c0.5,0.5,1.7,0.1,2.6-0.2c0.8-0.3,1.4-0.6,1.6-0.4c-0.2,0.6,0.4,0.5,0.9,0.4
						c0.2,0,0.4,0,0.5,0c0.9,0.1,1.8-0.3,2.4-0.9c0.2,0.1,0.2,0.1,0.3,0s0.1-0.1,0.3,0.1c-0.8,0.7-1.8,1.5-0.4,2.4
						c1,0.7,2.4-0.4,3.2-1.2c0.3,0.2,0.2,0.5,0.5,0.7c-0.5,0.8-1.4,1.7-1.2,1.8c0.9-0.2,1.7-0.7,2.2-1.4c0.3,0.2-0.6,1-0.3,1.2
						c-0.4,0.6-2.4,2.4-1,3.4c1.1,0.8,2.2-1,3.3-1.7c0.2,0.1,0.6-0.1,0.9-0.4s0.7-0.5,0.9-0.4c-0.4,0.5-1,1.9-0.8,2s1.2-1.4,1.8-1.8
						c0.4,0.2-1.8,2-1.1,2.9s2.3,0.5,4-1.6c0.6,0.2,1.1,0.1,2.3-0.9c0.5,0.2-1.1,1.1,0.2,1.9s2-0.2,2.9-1c0.1-0.1-0.2,0.5-0.4,1.1
						c-0.3,0.8-0.6,1.6,0.2,0.8c0.5,0.2-1.6,1.1-0.4,2.1s2.3-0.1,2.9-0.8c0.2,0.1,0.3,0.1,0.5,0.2c-0.6,0.7-0.4,1.7,0.2,2.2
						c0.2,0.2,0.4,0.3,0.7,0.3c0.5,0.1,1-0.2,1.2-0.6c0.2-0.3,0.4-0.6,0.5-0.6c0.1,0,0.2,0,0.2,0c0.1,0,0.2,0,0.3,0
						c-0.5,0.9-0.6,2-0.2,2.9c0.8,0.1,1.5-1.8,2.1-3c0.5,0.6-0.5,2.6,0.9,3.3s2.1-0.7,2.5-1.7c0-0.1,0.1,0,0.3,0.1s0.8,0.4,1.6-0.6
						c0.8,0.2,1.6,0.4,2.3,0.7c-0.4,0.3-0.5,0.5-0.7,1.8c-0.2,1.1-0.1,2,1.6,2.4c0.8,0.2,1.7-0.2,2.1-1c0.4-0.6,0.5-1.3,0.6-1
						c-0.1,0.4,0,0.9,0.2,1.3c0.2,0.5-1.5,2.8-1.2,3.4c0.2,0.3,2.6,0.4,2.9-0.8c0.3,0.4,0.7,0.8,1.1,1.1c2,1.7-0.5,5-3.2,8.8
						c-0.8,1.2-1.6,3.7-2.5,6.4c-0.4,0.9-1,1.7-1.9,2.2c-1.5,1-1.1,4.9,1.5,2c-0.7,1.9-2.3,5.4-2.9,6.8c-0.9,0.1-1.6,0.8-1.7,1.8
						c0,1,0.8,1.4,1.7,1.2c-0.2,0.6-0.9,2.5-2.2,2.4c-3.1,5.7-11.5,15.3-6.3,14.3c3.3-0.7,12-3,17.8-2.9c-1,0.8-1.1,1.4-0.5,1.9
						s3.1,0.2,4.5-1.1c1-0.2,2-0.2,3,0c-2.2,1.2-2.7,2.5-2,3.1c0.9,0.9,3.4,0.2,5-1.5c0.5,0,1,0.2,1.1,0.7c0.3,0.5,0.5,1,1.2,0.5
						c-0.6,0.5-0.6,1.4-0.1,2c0,0,0.1,0.1,0.1,0.1c0.6,0.6,3.3,0.2,5.1-1.7c1.1-0.2,2.2-0.7,3.1-1.4c0.4,0,0.8,0,1.1,0
						c0.4,0,0.8,0,1.3,0c-1.3,1.2-2.1,2.6-0.6,2.9c0.7,0.2,4-1.8,5.2-3c0.8-0.8,1-0.4,1.3,0s0.4,0.5,0.8,0.4
						c-0.5,1.3-1.7,2.3-1.3,2.8c1.8,2.1,5.6-3.7,7.7-5.7c-1.1,2.3,0.2,4.3,4,0.3c0.6-0.2,2-1.4,2.6-1.7c1.3-1,2.4-2.1,3.5-3.3
						c0.5-0.2-1.9,1.4-1.1,2.5c1.1,1.5,3.8-1.7,4.9-2.9c6.1-6.9,11.1-14.7,14.9-23.1c0.2-0.6-1.1-2.7-2.2-0.3c-0.2-1-0.4-2-0.3-3.1
						c0.5-2.3,2-2.4,2.3-5.2c0,0.4,0,0.9,0,1.3c0.1,0.9,0.4,1.8,1.3,1.3s1-3.5,1.4-6.2c0.4-2.5,0.5-5,0.4-7.5c0-0.6,0.3-3.7-0.6-3.9
						c-1.2-0.3-1.2,0.8-1.4,1.5c-0.2-1.6,0-3-0.7-4.7c0.1-0.4,0-1.5,0.1-1.9c0.8,3.3,5.5,2.8,2.8-4.8c0.1-0.7-0.2-1.2-0.1-1.9
						c2,2.8,2.6-0.2,0-4.8c-0.1-1.4,0.2-3.7-0.3-4.7c0.7,0.3,1.5-0.1,1.7-0.8c0.1-0.3,0.1-0.7,0-1c-2.2-4.4-5.6-3.7-4.6-1.6
						c-2.2,1.9-3.2-3.4-4.9-3.5c-0.6-0.2-1.3-0.3-1.9-0.4c-1.4-1-2.6-1.5-3.4-1.2s-1.8,1.4,0.1,3.5c-1.4,0.2-1.9,0-1.9,1.9
						c-0.9-0.8-2.2-2-3.6-1.3c-2.1,1.1,1.2,3.8,0.4,3.4c-1.4-0.6-5.9-5.1-6.9-6.8c1.9,1,2.8-1.5,1-2.8c-1.3-0.9-1.4-0.8-1.6-1.4
						c1.4,0,3.2,0.4,3.3,0.1c0.2-1.1-3.2-1.6-3.9-2c-0.2-0.5-0.7-0.7-0.8-1.3c1.6,0.8,3.3,0.9,3.6-0.3s-0.1-1.7-4.1-3
						c-0.1-0.5-0.1-2.9-0.1-3.5c1.7,1.2,3.2,0,3-0.8s-1.5-2.2-3.4-2.4c0-0.3-0.2-1.3-0.2-1.5c-0.1-0.5-2.6-0.4-2.7-0.8
						c1.7,0.2,2.6-0.3,2.6-1.4c0.1-0.9-1.8-1.5-3-1.9c-0.1-0.5,1.8-1.1,1.7-1.6c3.2,0.7,3.4-0.6,2.9-1.6c-0.3-0.8-1.8-1-3.2-1.1
						c1.5-1.9-1.5-1.8-4.9-2.8c2.7,0.2,2.5-0.9,2.2-1.4c-0.5-0.9-2.6-1.6-3.9-1.3c1.5-1.3-2.7-1.4-2.7-1.5c0.5-1.1-0.3-2.2-2.1-1.6
						c-1.1,0.5-2.3,0.9-3.5,1.2c-5.7,0.7-14.1,2.7-15.8,1c2.9,0.3,2.7-1.7,2-2.2c-0.9-0.2-1.8-0.3-2.7-0.2c-0.8,0-1.6,0-2.4-0.1
						c-2.4-0.6-4-0.3-5.8-0.7c-3.7-0.8-10.8-4.5-13.2-7.6c1.6,1.4,2.2,2.1,3,1.4c1.4-1-1.9-3.6-1.9-3.8c0.1-0.6-0.1-1.2-1.5-1.8
						c0-0.8,0-1.2,0-2c0.5,0.4,1,0.9,1.4,1.4c0.9,0.9,1.9,1.8,2.1,1.3c0.4-1.3-1.3-4.2-1.3-4.5c0-0.8-0.1-3.3-0.1-4.1
						c0.6-2.3,0.4-3-0.4-3.3s-1.7-0.2-1.9,1c0-0.9,0.3-1.8,0.3-2.8c1,1.3,0.3-0.7-0.2-3.9c0.9-1.9,1-3.2,0.3-3.9
						c-1-0.9-2.1,1.2-2.6,1.9c0-1.3,1.6-6,1.9-7.2c0.6-1.5,0-1.7-0.5-2.1s-1.3-0.2-2.1,0.5c-0.3-4.3,1.1-3.4,0.8-4.1
						c0.8-0.9,1.9-2.1,1-3.2c-0.6-0.8-1.6-0.2-2.3,0.3c-0.5,0.4-0.9,0.7-0.9,0.6c0-1.2,0.8-3.2,0.6-4c0.7-0.9,2.2-2.5,1.4-3.4
						c-1.2-1.5-2.5-0.5-3.8,1.1c0.7-3,0.6-2.3,0.2-2.9c-0.5-0.8-0.6-0.5-1.8,2.6c-0.2-0.6-0.3-0.8-0.5-1.3c-0.1-0.2,0.2-4.4-0.4-4.6
						s-1.5,3-1.5,3l-1.4-0.7c0,0,0.6-1.4,0-1.8s-1,1.3-1,1.3l-2-0.9c0,0,0.5-1.2,0.2-1.5s-1.2,1-1.2,1l-2.7-1.3
						c-0.1-0.6-0.3-1.3-0.5-1.9c-0.4-0.3-0.6,1.3-0.6,1.3L76,29c0,0,0.5-2.2,0.3-2.4c-0.7-0.5-1.1,2-1.1,2L74,24.4
						c0,0-2.3,1.3-2.7,0.3s-2,0.6-2,0.6l-2.5,1c0,0-1.2-2.6-2.6-2.6C64,23.7,63.9,23.7,63.8,23.7"/>
				</defs>
				<clipPath id="SVGID_2_">
					<use xlink:href="#SVGID_1_"  style="overflow:visible;"/>
				</clipPath>
				<g class="st0">
					<path class="st1" d="M17.2,5.8c0.6-2.3,1.2-3.3,2-3.2c0.2,0,0.4,0.1,0.5,0.3c0.2,0.4,0.2,0.8,0,1.1c-0.1,0.3-0.2,0.7-0.4,1.1
						S19.1,6.1,19,6.5c-0.1,0.2-0.1,0.4-0.1,0.6c0,0.1,0,0.3-0.1,0.5c-1.5,10.3,0.6,20.8,6,29.7c5,8,11.9,12.9,16,15.9
						c2.7,2,4,2.8,3.7,3.8l0,0V57c-0.2,0.4-0.6,0.6-1,0.7c-3.5,0.2-16.5-12.3-20-17.9c-6.2-9.8-8.5-21.6-6.6-33
						C17,6.4,17.1,6.1,17.2,5.8"/>
					<path class="st2" d="M17.2,5.8c0.6-2.3,1.2-3.3,2-3.2c0.2,0,0.4,0.1,0.5,0.3c0.2,0.4,0.2,0.8,0,1.1c-0.1,0.3-0.2,0.7-0.4,1.1
						S19.1,6.1,19,6.5c-0.1,0.2-0.1,0.4-0.1,0.6c0,0.1,0,0.3-0.1,0.5c-1.5,10.3,0.6,20.8,6,29.7c5,8,11.9,12.9,16,15.9
						c2.7,2,4,2.8,3.7,3.8l0,0V57c-0.2,0.4-0.6,0.6-1,0.7c-3.5,0.2-16.5-12.3-20-17.9c-6.2-9.8-8.5-21.6-6.6-33
						C17,6.4,17.1,6.1,17.2,5.8z"/>
					<path class="st1" d="M22.2,3.2C23,1,23.7,0,24.5,0.2c0.2,0,0.4,0.1,0.5,0.3c0.1,0.4,0.1,0.8-0.1,1.2c-0.1,0.3-0.3,0.7-0.5,1.1
						S24.1,3.6,24,4c-0.1,0.2-0.1,0.4-0.2,0.6L23.7,5c-2.5,10.1-1.4,20.8,3.1,30.2c4.2,8.5,10.5,14,14.3,17.4
						c2.5,2.2,3.7,3.2,3.3,4.2l0,0l-0.1,0.1c-0.2,0.4-0.6,0.6-1.1,0.5c-3.5-0.1-16.4-13.9-19.4-19.9c-8.4-16.7-2.2-32.7-2-33.4
						C22,3.8,22.1,3.5,22.2,3.2"/>
					<path class="st2" d="M22.2,3.2C23,1,23.7,0,24.5,0.2c0.2,0,0.4,0.1,0.5,0.3c0.1,0.4,0.1,0.8-0.1,1.2c-0.1,0.3-0.3,0.7-0.5,1.1
						S24.1,3.6,24,4c-0.1,0.2-0.1,0.4-0.2,0.6L23.7,5c-2.5,10.1-1.4,20.8,3.1,30.2c4.2,8.5,10.5,14,14.3,17.4
						c2.5,2.2,3.7,3.2,3.3,4.2l0,0l-0.1,0.1c-0.2,0.4-0.6,0.6-1.1,0.5c-3.5-0.1-16.4-13.9-19.4-19.9c-8.4-16.7-2.2-32.7-2-33.4
						C22,3.8,22.1,3.5,22.2,3.2z"/>
					<path class="st1" d="M-14.8,33.8c0.1-0.4,0.3-0.7,0.6-0.9c0.3-0.1,0.6-0.1,0.9,0c0.8,0.3,1.2,1.3,0.9,2.1c0,0,0,0,0,0
						c0,0.1,0,0.2-0.1,0.2c-0.1,0.8-1.3,10.4,0.7,18.7c0.1,0.4,0.2,0.9,0.1,1.4c-0.1,0.3-0.3,0.6-0.6,0.8c-0.2,0.1-0.5,0.1-0.7,0
						c-0.6-0.3-1-1.2-1.1-1.5c-2.3-9.1-0.8-19.3-0.8-19.8C-14.9,34.5-14.9,34.1-14.8,33.8"/>
					<path class="st2" d="M-14.8,33.8c0.1-0.4,0.3-0.7,0.6-0.9c0.3-0.1,0.6-0.1,0.9,0c0.8,0.3,1.2,1.3,0.9,2.1c0,0,0,0,0,0
						c0,0.1,0,0.2-0.1,0.2c-0.1,0.8-1.3,10.4,0.7,18.7c0.1,0.4,0.2,0.9,0.1,1.4c-0.1,0.3-0.3,0.6-0.6,0.8c-0.2,0.1-0.5,0.1-0.7,0
						c-0.6-0.3-1-1.2-1.1-1.5c-2.3-9.1-0.8-19.3-0.8-19.8C-14.9,34.5-14.9,34.1-14.8,33.8z"/>
					<path class="st1" d="M47.9,101.8c0.3-1,2.1-1.6,2.7-1.7c2.7-1,5.4-2.1,8-3.5c7-3.6,13.1-8.8,17.6-15.3c3.7-5.4,6.4-11.4,8-17.7
						c0.8-2.9,1.2-5.8,1.5-8.7c0-0.6,0.1-1.2,0.2-1.8c0.2-0.9,0.7-1.1,1-1.1c0.2,0,0.5,0.1,0.7,0.3c0.6,0.6,0.6,2.3,0.5,2.8
						c-0.2,2.7-0.7,5.3-1.4,7.9C84.9,69.9,82,76.4,78,82.2c-4.8,7.1-11.2,12.9-18.7,17.1c-2.7,1.4-5.5,2.7-8.3,3.7
						c-0.7,0.4-1.4,0.5-2.2,0.3c-0.4-0.1-0.6-0.4-0.8-0.7C47.9,102.4,47.9,102.1,47.9,101.8"/>
					<path class="st2" d="M47.9,101.8c0.3-1,2.1-1.6,2.7-1.7c2.7-1,5.4-2.1,8-3.5c7-3.6,13.1-8.8,17.6-15.3c3.7-5.4,6.4-11.4,8-17.7
						c0.8-2.9,1.2-5.8,1.5-8.7c0-0.6,0.1-1.2,0.2-1.8c0.2-0.9,0.7-1.1,1-1.1c0.2,0,0.5,0.1,0.7,0.3c0.6,0.6,0.6,2.3,0.5,2.8
						c-0.2,2.7-0.7,5.3-1.4,7.9C84.9,69.9,82,76.4,78,82.2c-4.8,7.1-11.2,12.9-18.7,17.1c-2.7,1.4-5.5,2.7-8.3,3.7
						c-0.7,0.4-1.4,0.5-2.2,0.3c-0.4-0.1-0.6-0.4-0.8-0.7C47.9,102.4,47.9,102.1,47.9,101.8z"/>
					<path class="st1" d="M58.5,102.4c0.2-0.8,1.3-1.2,1.5-1.2c2.1-1,4.1-2.2,5.9-3.5c5.7-4.1,10.6-9.3,14.5-15.1
						c2.5-4.2,4.5-8.7,6.1-13.3c0.6-1.7,1.4-4.2,2.4-7.7c0-0.3,0.1-0.5,0.1-0.8c0.3-1.2,1-1.4,1.4-1.4c0.4,0,0.7,0.1,0.9,0.4
						c0.4,0.7,0.5,1.6,0.1,2.4c0,0.2-0.1,0.3-0.1,0.3c-0.7,2.3-1.9,5.9-2.8,8.2c-1.8,4.5-4,8.8-6.6,12.9c-3.9,6-8.7,11.3-14.3,15.8
						c-2,1.6-4.2,3.1-6.6,4.2c-0.6,0.3-1.2,0.4-1.8,0.3c-0.3-0.1-0.6-0.3-0.7-0.6C58.5,103,58.5,102.7,58.5,102.4"/>
					<path class="st2" d="M58.5,102.4c0.2-0.8,1.3-1.2,1.5-1.2c2.1-1,4.1-2.2,5.9-3.5c5.7-4.1,10.6-9.3,14.5-15.1
						c2.5-4.2,4.5-8.7,6.1-13.3c0.6-1.7,1.4-4.2,2.4-7.7c0-0.3,0.1-0.5,0.1-0.8c0.3-1.2,1-1.4,1.4-1.4c0.4,0,0.7,0.1,0.9,0.4
						c0.4,0.7,0.5,1.6,0.1,2.4c0,0.2-0.1,0.3-0.1,0.3c-0.7,2.3-1.9,5.9-2.8,8.2c-1.8,4.5-4,8.8-6.6,12.9c-3.9,6-8.7,11.3-14.3,15.8
						c-2,1.6-4.2,3.1-6.6,4.2c-0.6,0.3-1.2,0.4-1.8,0.3c-0.3-0.1-0.6-0.3-0.7-0.6C58.5,103,58.5,102.7,58.5,102.4z"/>
					<path class="st1" d="M64.8,103.4c0.2-0.7,1.2-1.3,1.5-1.5c7.3-4.3,13.4-9.7,17.3-15c2.6-3.7,4.6-9,5.6-11.8l0.1-0.3
						c0.4-1.2,0.8-2.4,1.2-3.6c0-0.1,0.1-0.2,0.1-0.2c0.1-0.4,0.6-2,1.4-2.3c0.3-0.1,0.6-0.1,0.8,0.1c0.6,0.4,0.7,1.3,0.2,3
						c-0.2,0.8-0.4,1.4-0.4,1.4c-0.4,1.2-0.8,2.4-1.3,3.7c-1.4,3.5-3.2,6.8-5.4,9.8c-4.9,6.9-11.2,12.7-18.3,17.2
						c-0.1,0.1-1.5,1.1-2.4,0.3C64.8,104.1,64.7,103.7,64.8,103.4"/>
					<path class="st2" d="M64.8,103.4c0.2-0.7,1.2-1.3,1.5-1.5c7.3-4.3,13.4-9.7,17.3-15c2.6-3.7,4.6-9,5.6-11.8l0.1-0.3
						c0.4-1.2,0.8-2.4,1.2-3.6c0-0.1,0.1-0.2,0.1-0.2c0.1-0.4,0.6-2,1.4-2.3c0.3-0.1,0.6-0.1,0.8,0.1c0.6,0.4,0.7,1.3,0.2,3
						c-0.2,0.8-0.4,1.4-0.4,1.4c-0.4,1.2-0.8,2.4-1.3,3.7c-1.4,3.5-3.2,6.8-5.4,9.8c-4.9,6.9-11.2,12.7-18.3,17.2
						c-0.1,0.1-1.5,1.1-2.4,0.3C64.8,104.1,64.7,103.7,64.8,103.4z"/>
					<path class="st1" d="M85.8,92.9L85.8,92.9c0.4,0.3,0.9,0.3,1.3,0.1c1-1.2,1.8-2.4,2.5-3.5c1.8-2.7,3.4-5.6,4.7-8.5
						c0.2-0.3,0.3-0.7,0.4-1.1c0.2-0.5,0.2-1.1-0.1-1.6c-0.2-0.2-0.5-0.3-0.8-0.3c-0.8,0-1.3,0.6-1.6,1.6c0,0.1-0.1,0.2-0.1,0.4l0,0
						c-1.2,3.6-3,7-5.2,10.1c-0.4,0.5-0.8,1-1.2,1.5C85.4,92.1,85.4,92.6,85.8,92.9"/>
					<path class="st2" d="M85.8,92.9L85.8,92.9c0.4,0.3,0.9,0.3,1.3,0.1c1-1.2,1.8-2.4,2.5-3.5c1.8-2.7,3.4-5.6,4.7-8.5
						c0.2-0.3,0.3-0.7,0.4-1.1c0.2-0.5,0.2-1.1-0.1-1.6c-0.2-0.2-0.5-0.3-0.8-0.3c-0.8,0-1.3,0.6-1.6,1.6c0,0.1-0.1,0.2-0.1,0.4l0,0
						c-1.2,3.6-3,7-5.2,10.1c-0.4,0.5-0.8,1-1.2,1.5C85.4,92.1,85.4,92.6,85.8,92.9z"/>
					<path class="st1" d="M79.8,100.3c1.9-1.5,3.7-3.2,5.4-5.1c0.3-0.4,0.2-1-0.2-1.3L85,93.8c-0.4-0.3-1-0.4-1.4-0.1
						c-1.7,1.7-3.4,3.2-5.3,4.7c-0.2,0.2-1.4,0.9-1.6,1.7c-0.1,0.3,0,0.6,0.1,0.8c0.1,0.2,0.4,0.4,0.6,0.4
						C78.3,101.5,79.5,100.6,79.8,100.3"/>
					<path class="st2" d="M79.8,100.3c1.9-1.5,3.7-3.2,5.4-5.1c0.3-0.4,0.2-1-0.2-1.3L85,93.8c-0.4-0.3-1-0.4-1.4-0.1
						c-1.7,1.7-3.4,3.2-5.3,4.7c-0.2,0.2-1.4,0.9-1.6,1.7c-0.1,0.3,0,0.6,0.1,0.8c0.1,0.2,0.4,0.4,0.6,0.4
						C78.3,101.4,79.5,100.6,79.8,100.3z"/>
					<path class="st1" d="M3.6,30.3c0.2,0.7,0.9,1.2,1.6,1h0.1c0.7-0.2,1.2-0.9,1-1.6l0,0C5,21.7,4.8,13.5,5.8,5.4l0-0.2
						C6.1,4.6,6,3.8,5.7,3.2C5.6,2.9,5.3,2.8,5.1,2.7c-0.4-0.1-1.2,0-1.6,1.6C3.4,4.6,3.4,4.8,3.4,5.1C2.1,13.4,2.2,21.9,3.6,30.3
						L3.6,30.3z"/>
					<path class="st2" d="M3.6,30.3c0.2,0.7,0.9,1.2,1.6,1h0.1c0.7-0.2,1.2-0.9,1-1.6l0,0C5,21.7,4.8,13.5,5.8,5.4l0-0.2
						C6.1,4.6,6,3.8,5.7,3.2C5.6,2.9,5.3,2.8,5.1,2.7c-0.4-0.1-1.2,0-1.6,1.6C3.4,4.6,3.4,4.8,3.4,5.1C2.1,13.4,2.2,21.9,3.6,30.3
						L3.6,30.3z"/>
					<path class="st1" d="M77.2,72.3L77.2,72.3c0.5,0.2,1,0.1,1.3-0.3c0.9-2.3,1.7-4.7,2.3-7.1c2-8.2,2.6-16.6,1.8-25
						c-0.8-5.4-1.8-5.2-2.1-5.2c-0.4,0.1-0.6,0.4-0.7,0.7c-0.3,1.2,0.4,4.5,0.4,4.8c0.9,8.2,0.4,16.5-1.6,24.5
						c-0.5,2.2-1.2,4.3-2,6.3C76.6,71.5,76.8,72,77.2,72.3"/>
					<path class="st2" d="M77.2,72.3L77.2,72.3c0.5,0.2,1,0.1,1.3-0.3c0.9-2.3,1.7-4.7,2.3-7.1c2-8.2,2.6-16.6,1.8-25
						c-0.8-5.4-1.8-5.2-2.1-5.2c-0.4,0.1-0.6,0.4-0.7,0.7c-0.3,1.2,0.4,4.5,0.4,4.8c0.9,8.2,0.4,16.5-1.6,24.5
						c-0.5,2.2-1.2,4.3-2,6.3C76.5,71.5,76.8,72.1,77.2,72.3z"/>
					<path class="st1" d="M33.7,99.7c4.6,0,9.2-0.6,13.7-1.7c6.6-1.6,18.7-5.9,26.5-17.3c1.2-1.7,2.2-3.5,3.1-5.3
						c0.1-0.5-0.1-1-0.6-1.2h-0.1c-0.4-0.2-0.9-0.1-1.2,0.2c-0.9,1.8-1.9,3.5-3,5.2c-6.8,9.9-17.8,14.1-25.8,15.9
						c-4.2,0.9-8.4,1.4-12.7,1.4c-0.6-0.1-2.7-0.2-3,1c0,0.2,0,0.3,0,0.5C31.1,100,33.6,99.8,33.7,99.7"/>
					<path class="st2" d="M33.7,99.7c4.6,0,9.2-0.6,13.7-1.7c6.6-1.6,18.7-5.9,26.5-17.3c1.2-1.7,2.2-3.5,3.1-5.3
						c0.1-0.5-0.1-1-0.6-1.2h-0.1c-0.4-0.2-0.9-0.1-1.2,0.2c-0.9,1.8-1.9,3.5-3,5.2c-6.8,9.9-17.8,14.1-25.8,15.9
						c-4.2,0.9-8.4,1.4-12.7,1.4c-0.6-0.1-2.7-0.2-3,1c0,0.2,0,0.3,0,0.5C31,99.9,33.5,99.7,33.7,99.7z"/>
					<path class="st1" d="M71.3,69c-4.6,11-13.2,18.2-23.9,20.6c-0.5,0.3-0.7,0.8-0.6,1.3v0.1c0.1,0.5,0.5,0.9,1.1,1
						C59.5,89.2,69,81,73.5,69.9c1.2-2.9,2.2-5.8,3-8.8c4.7-18.5-1.8-30.6-1.8-30.6c-0.3-0.8-1.8-4.5-3.1-5c-0.3-0.1-0.5-0.1-0.8,0
						c-0.2,0.1-0.4,0.3-0.4,0.5c-0.3,1,1.4,4.3,2.2,5.6c0.1,0.1,6.1,11.4,1.6,28.9C73.4,63.4,72.5,66.3,71.3,69"/>
					<path class="st2" d="M71.3,69c-4.6,11-13.2,18.2-23.9,20.6c-0.5,0.3-0.7,0.8-0.6,1.3v0.1c0.1,0.5,0.5,0.9,1.1,1
						C59.5,89.2,69,81,73.5,69.9c1.2-2.9,2.2-5.8,3-8.8c4.7-18.5-1.8-30.6-1.8-30.6c-0.3-0.8-1.8-4.5-3.1-5c-0.3-0.1-0.5-0.1-0.8,0
						c-0.2,0.1-0.4,0.3-0.4,0.5c-0.3,1,1.4,4.3,2.2,5.6c0.1,0.1,6.1,11.4,1.6,28.9C73.4,63.4,72.5,66.3,71.3,69z"/>
					<path class="st1" d="M28.7,92.3c4.5,1,9.2,1.2,13.8,0.7c0.6-0.2,1-0.8,0.9-1.4v-0.1c-0.1-0.7-0.7-1.1-1.4-1.1l0,0
						c-3.9,0.3-7.9,0-11.8-0.9C6.2,84.6-8.2,62.4-8.3,30.2c0-0.7,0-1.3,0.1-1.7c0.1-0.9,0.1-1.6-1-1.8c-0.4-0.1-1,0-1.3,1.2
						c-0.2,0.7-0.2,1.5-0.2,2.2c-0.3,17.1,3.2,31.3,10.2,42.2C6,82.8,16.6,90,28.7,92.3"/>
					<path class="st2" d="M28.7,92.3c4.5,1,9.2,1.2,13.8,0.7c0.6-0.2,1-0.8,0.9-1.4v-0.1c-0.1-0.7-0.7-1.1-1.4-1.1l0,0
						c-3.9,0.3-7.9,0-11.8-0.9C6.2,84.6-8.2,62.4-8.3,30.2c0-0.7,0-1.3,0.1-1.7c0.1-0.9,0.1-1.6-1-1.8c-0.4-0.1-1,0-1.3,1.2
						c-0.2,0.7-0.2,1.5-0.2,2.2c-0.3,17.1,3.2,31.3,10.2,42.2C6.1,82.8,16.6,90,28.7,92.3z"/>
					<path class="st1" d="M63.7,62.2c-2.2,8.7-7.2,13.1-11,15.1c-6.1,3.4-15.1,3.7-22.3,1.1c-0.6-0.2-1.3,0.1-1.6,0.7l0,0.1
						c-0.3,0.6,0,1.3,0.6,1.6c0,0,0,0,0,0c7.7,2.5,17.1,2,24-1.8c3.6-2,9.9-6.8,12.6-17.4c0.4-1.7,0.7-3.4,0.9-5.1
						c1.5-13.3-2.2-25.8-11.2-37.1c-0.3-0.3-0.5-0.6-0.6-0.8c-5.4-7.4-6.3-7.5-6.7-7.5c-0.2,0-0.4,0.1-0.5,0.2l-0.1,0.2v0.1
						c-0.2,0.7,0.6,1.9,3.4,5.6c0.8,1.1,1.7,2.2,2.1,2.9c0.2,0.4,0.6,0.8,1,1.4c3.4,4.6,12.4,16.9,10.4,35.5
						C64.4,58.9,64.1,60.5,63.7,62.2"/>
					<path class="st2" d="M63.7,62.2c-2.2,8.7-7.2,13.1-11,15.1c-6.1,3.4-15.1,3.7-22.3,1.1c-0.6-0.2-1.3,0.1-1.6,0.7l0,0.1
						c-0.3,0.6,0,1.3,0.6,1.6c0,0,0,0,0,0c7.7,2.5,17.1,2,24-1.8c3.6-2,9.9-6.8,12.6-17.4c0.4-1.7,0.7-3.4,0.9-5.1
						c1.5-13.3-2.2-25.8-11.2-37.1c-0.3-0.3-0.5-0.6-0.6-0.8c-5.4-7.4-6.3-7.5-6.7-7.5c-0.2,0-0.4,0.1-0.5,0.2l-0.1,0.2v0.1
						c-0.2,0.7,0.6,1.9,3.4,5.6c0.8,1.1,1.7,2.2,2.1,2.9c0.2,0.4,0.6,0.8,1,1.4c3.4,4.6,12.4,16.9,10.4,35.5
						C64.4,58.9,64.1,60.5,63.7,62.2z"/>
					<path class="st1" d="M24.9,9.5c0,0.2-2.9,18.2,6.3,29.8c2.8,3.4,6,6.5,9.4,9.3l0.3,0.2c4.6,3.9,7.6,6.5,6.9,9.2
						c-0.1,0.4-0.2,0.7-0.5,1.1c-0.6,1-1.6,1.6-2.8,1.5c-4.7,0-15-8.5-19.7-14.5c-0.5-0.4-1.2-0.4-1.7-0.1l-0.1,0.1
						c-0.7,0.4-0.9,1.3-0.5,2l0,0c5.1,6.2,16.3,14.8,22,14.7c2,0,3.8-1.2,4.8-3c0.4-0.6,0.7-1.3,0.8-2c1.1-4.2-2.7-7.3-7-11
						c-3.3-2.6-6.3-5.6-9-8.9c-7.7-9.7-7.3-24.2-7.1-27c0.1-1.2,0.3-2.3,0.6-3.4c0.1-0.4,0.2-0.7,0.3-1s0.1-0.5,0.2-0.8
						c0.2-0.8,0.4-1.7-0.2-2c-0.2-0.1-0.5-0.1-0.7,0c-0.4,0.2-1,0.8-1.6,3.4C25.2,7.8,25,8.6,24.9,9.5"/>
					<path class="st2" d="M24.9,9.5c0,0.2-2.9,18.2,6.3,29.8c2.8,3.4,6,6.5,9.4,9.3l0.3,0.2c4.6,3.9,7.6,6.5,6.9,9.2
						c-0.1,0.4-0.2,0.7-0.5,1.1c-0.6,1-1.6,1.6-2.8,1.5c-4.7,0-15-8.5-19.7-14.5c-0.5-0.4-1.2-0.4-1.7-0.1l-0.1,0.1
						c-0.7,0.4-0.9,1.3-0.5,2l0,0c5.1,6.2,16.3,14.8,22,14.7c2,0,3.8-1.2,4.8-3c0.4-0.6,0.7-1.3,0.8-2c1.1-4.2-2.7-7.3-7-11
						c-3.3-2.6-6.3-5.6-9-8.9c-7.7-9.7-7.3-24.2-7.1-27c0.1-1.2,0.3-2.3,0.6-3.4c0.1-0.4,0.2-0.7,0.3-1s0.1-0.5,0.2-0.8
						c0.2-0.8,0.4-1.7-0.2-2c-0.2-0.1-0.5-0.1-0.7,0c-0.4,0.2-1,0.8-1.6,3.4C25.2,7.9,25,8.6,24.9,9.5z"/>
					<path class="st1" d="M20.1,43.8c0.5,0.6,1.3,0.8,2,0.3l0.1-0.1c0.6-0.4,0.8-1.1,0.6-1.7c-4.2-6.6-8.4-14.1-8.1-37
						c0.2-0.9,0.2-1.8-0.2-2.6c-0.2-0.2-0.4-0.4-0.7-0.4c-0.4,0-1,0.2-1.3,1.4c-0.1,0.5-0.2,1-0.2,1.5
						C11.9,28.2,15.4,36.4,20.1,43.8L20.1,43.8z"/>
					<path class="st2" d="M20.1,43.8c0.5,0.6,1.3,0.8,2,0.3l0.1-0.1c0.6-0.4,0.8-1.1,0.6-1.7c-4.2-6.6-8.4-14.1-8.1-37
						c0.2-0.9,0.2-1.8-0.2-2.6c-0.2-0.2-0.4-0.4-0.7-0.4c-0.4,0-1,0.2-1.3,1.4c-0.1,0.5-0.2,1-0.2,1.5
						C11.9,28.2,15.4,36.4,20.1,43.8L20.1,43.8z"/>
					<path class="st1" d="M8,54L8,54c0.6-0.4,0.8-1,0.6-1.5C4.2,43.9,1.3,34.6,0.3,25C-0.9,12.4,0.6,9.3,0.9,8.1C1,7.9,1,7.7,1,7.6
						l0.1-0.2c0.1-0.2,0.2-0.5,0.2-0.8C1.5,5.8,1.7,4.7,1,4.3C0.8,4.1,0.4,4,0.2,4.1c-0.7,0.2-1,1.2-1.4,2.7l-0.1,0.4
						C-1.9,9.5-2.9,15.5-2.1,25c1,10,3.8,19.7,8.4,28.6C6.7,54.1,7.4,54.3,8,54"/>
					<path class="st2" d="M8,54L8,54c0.6-0.4,0.8-1,0.6-1.5C4.2,43.9,1.3,34.6,0.3,25C-0.9,12.4,0.6,9.3,0.9,8.1C1,7.9,1,7.7,1,7.6
						l0.1-0.2c0.1-0.2,0.2-0.5,0.2-0.8C1.5,5.8,1.7,4.7,1,4.3C0.8,4.1,0.4,4,0.2,4.1c-0.7,0.2-1,1.2-1.4,2.7l-0.1,0.4
						C-1.9,9.5-2.9,15.5-2.1,25c1,10,3.8,19.7,8.4,28.6C6.7,54.1,7.4,54.3,8,54z"/>
					<path class="st1" d="M29.9,9.3v0.2c-0.6,4.6-0.3,8.2,0.8,13.8c0.3,0.7,1,1,1.7,0.8h0.1c0.7-0.2,0.6-1,0.5-1.6
						c-1.2-3.9-1.3-6.1-1.2-11.7v-0.1c0-0.3,0.2-0.9,0.3-1.6c0.6-2.4,0.8-3.6,0.3-4.1c-0.2-0.2-0.4-0.3-0.7-0.2
						c-0.7,0.1-1.2,1-1.7,3.1C30.2,8.4,30,8.9,29.9,9.3"/>
					<path class="st2" d="M29.9,9.3v0.2c-0.6,4.6-0.3,8.2,0.8,13.8c0.3,0.7,1,1,1.7,0.8h0.1c0.7-0.2,0.6-1,0.5-1.6
						c-1.2-3.9-1.3-6.1-1.2-11.7v-0.1c0-0.3,0.2-0.9,0.3-1.6c0.6-2.4,0.8-3.6,0.3-4.1c-0.2-0.2-0.4-0.3-0.7-0.2
						c-0.7,0.1-1.2,1-1.7,3.1C30.1,8.4,30,8.8,29.9,9.3z"/>
					<path class="st1" d="M56.9,53.2c0,0,1.2-0.1,1-1.6c-1.1-6.9-4.2-13.2-8.9-18.3c-0.9-0.9-10.7-8.3-11.6-18.6
						c-0.2-1.5-0.1-3,0.2-4.4c0.1-0.6,0.3-1.2-0.4-1.7c-0.2-0.1-0.5-0.2-0.7-0.1c-0.4,0.1-0.6,0.5-0.8,1.3c-0.4,1.8-0.5,3.6-0.2,5.4
						c1.7,10.8,4.7,14.1,9.8,19.4l0.7,0.8c5.2,5.4,8.5,11.4,9.6,16.9C55.8,52.9,56.3,53.2,56.9,53.2"/>
					<path class="st2" d="M56.9,53.2c0,0,1.2-0.1,1-1.6c-1.1-6.9-4.2-13.2-8.9-18.3c-0.9-0.9-10.7-8.3-11.6-18.6
						c-0.2-1.5-0.1-3,0.2-4.4c0.1-0.6,0.3-1.2-0.4-1.7c-0.2-0.1-0.5-0.2-0.7-0.1c-0.4,0.1-0.6,0.5-0.8,1.3c-0.4,1.8-0.5,3.6-0.2,5.4
						c1.7,10.8,4.7,14.1,9.8,19.4l0.7,0.8c5.2,5.4,8.5,11.4,9.6,16.9C55.8,52.9,56.3,53.2,56.9,53.2z"/>
					<path class="st1" d="M36.7,71.2c5.6,1.7,10.9,1.8,15.6-1.8c2.7-2.1,4.5-5.2,5.2-8.5c0.2-0.9,0.7-4.4,0.7-4.4
						c-0.1-0.6,0-1.1-0.7-1h-0.1c-0.6,0-1.1,0.6-1.1,1.2l0,0c-0.1,1.6-0.4,3.3-0.7,4.9c-0.7,2.7-2.3,5-4.5,6.7
						c-3.3,2.5-8.2,2.4-13.6,0.7c-4.5-1.4-8.4-4-11.3-5.8v0C19.3,57.9,11.2,48,7.3,34.2c-0.3-0.6-0.9-0.9-1.6-0.8H5.7
						c-0.7,0.1-1.3,0.8-1.2,1.6C10.4,57.1,27.9,68.6,36.7,71.2"/>
					<path class="st2" d="M36.7,71.2c5.6,1.7,10.9,1.8,15.6-1.8c2.7-2.1,4.5-5.2,5.2-8.5c0.2-0.9,0.7-4.4,0.7-4.4
						c-0.1-0.6,0-1.1-0.7-1h-0.1c-0.6,0-1.1,0.6-1.1,1.2l0,0c-0.1,1.6-0.4,3.3-0.7,4.9c-0.7,2.7-2.3,5-4.5,6.7
						c-3.3,2.5-8.2,2.4-13.6,0.7c-4.5-1.4-8.4-4-11.3-5.8v0C19.3,57.9,11.2,48,7.3,34.2c-0.3-0.6-0.9-0.9-1.6-0.8H5.7
						c-0.7,0.1-1.3,0.8-1.2,1.6C10.4,57.1,27.9,68.6,36.7,71.2z"/>
					<path class="st1" d="M33.3,26.2h-0.1c-0.7,0.3-1.1,0.9-1,1.6c0.7,1.8,1.6,3.6,2.5,5.4c2.9,5.5,6.6,9,9.8,12.1l0.2,0.2
						c4.4,4.3,8.3,8.1,6.8,13.7c-0.1,0.5-0.3,0.9-0.4,1.3c-0.7,2.1-2.4,3.8-4.5,4.5l0,0c-0.5,0-1,0.4-1,0.9V66
						c0,0.5,0.4,0.8,0.8,0.8c0.1,0,0.1,0,0.2,0c3-0.8,5.4-3.1,6.4-6c0.2-0.6,0.4-1.2,0.6-1.9c1.7-6.7-2.1-11-6.8-15.6
						c-3.1-2.9-6.6-6.4-9.3-11.5c-0.9-1.7-1.7-3.3-2.3-4.9l0,0C34.8,26.4,34,26,33.3,26.2"/>
					<path class="st2" d="M33.3,26.2h-0.1c-0.7,0.3-1.1,0.9-1,1.6c0.7,1.8,1.6,3.6,2.5,5.4c2.9,5.5,6.6,9,9.8,12.1l0.2,0.2
						c4.4,4.3,8.3,8.1,6.8,13.7c-0.1,0.5-0.3,0.9-0.4,1.3c-0.7,2.1-2.4,3.8-4.5,4.5l0,0c-0.5,0-1,0.4-1,0.9V66
						c0,0.5,0.4,0.8,0.8,0.8c0.1,0,0.1,0,0.2,0c3-0.8,5.4-3.1,6.4-6c0.2-0.6,0.4-1.2,0.6-1.9c1.7-6.7-2.1-11-6.8-15.6
						c-3.1-2.9-6.6-6.4-9.3-11.5c-0.9-1.7-1.7-3.3-2.3-4.9l0,0C34.8,26.4,34,26,33.3,26.2z"/>
					<path class="st1" d="M43.8,66.6L43.8,66.6c0-0.6-0.4-1.1-1-1.1l0,0c-5.8-1.4-14.3-6.8-18.2-10.4C21.6,52.3,7,36.5,10.9,3.9
						c0-0.1,0.1-0.2,0.1-0.5c0.4-1.8-0.1-2.4-0.6-2.6c-0.3-0.1-0.6-0.1-0.8,0.1C9.1,1.3,8.8,1.9,8.7,2.5c-0.1,0.3-0.2,0.7-0.2,1
						c-4.1,34.8,12.6,52,14.5,53.8C28,62,36.7,66.7,42.9,67.6C43.4,67.5,43.8,67.1,43.8,66.6"/>
					<path class="st2" d="M43.8,66.6L43.8,66.6c0-0.6-0.4-1.1-1-1.1l0,0c-5.8-1.4-14.3-6.8-18.2-10.4C21.6,52.3,7,36.5,10.9,3.9
						c0-0.1,0.1-0.2,0.1-0.5c0.4-1.8-0.1-2.4-0.6-2.6c-0.3-0.1-0.6-0.1-0.8,0.1C9.1,1.3,8.8,1.9,8.7,2.5c-0.1,0.3-0.2,0.7-0.2,1
						c-4.1,34.8,12.6,52,14.5,53.8C28,62,36.7,66.7,42.9,67.6C43.4,67.5,43.8,67.1,43.8,66.6z"/>
					<path class="st1" d="M53.9,31.7l0.2-0.2c0.7-0.5,0.9-1.4,0.4-2.1l0,0c-2.3-3.2-4.8-6.4-7.4-9.4c-1.1-1.2-1.9-2.2-2.3-2.8
						c-1.1-1.7-1.7-3.5-2-5.5c-0.3-1.6-0.5-2.8-1.7-2.9c-0.2,0-0.7,0.1-0.9,0.8c-0.3,1.2,0.2,4.1,1.1,6.7s3.3,5.5,6,9.1
						c1.4,1.8,2.9,3.8,4.3,5.8C52.2,31.9,53.1,32.1,53.9,31.7"/>
					<path class="st2" d="M53.9,31.7l0.2-0.2c0.7-0.5,0.9-1.4,0.4-2.1l0,0c-2.3-3.2-4.8-6.4-7.4-9.4c-1.1-1.2-1.9-2.2-2.3-2.8
						c-1.1-1.7-1.7-3.5-2-5.5c-0.3-1.6-0.5-2.8-1.7-2.9c-0.2,0-0.7,0.1-0.9,0.8c-0.3,1.2,0.2,4.1,1.1,6.7s3.3,5.5,6,9.1
						c1.4,1.8,2.9,3.8,4.3,5.8C52.2,31.9,53.1,32.1,53.9,31.7z"/>
					<path class="st1" d="M48.2,76.7c9.3-3.1,11.8-9.1,13.7-16.6c0.9-3.7,1.2-7.5,0.8-11.3C62.3,44.6,59.9,38,58,34.1
						c-0.5-0.7-1.4-0.8-2.1-0.4l-0.1,0.1c-0.7,0.5-0.9,1.5-0.4,2.2c0,0,0,0,0,0l0,0c1.8,3.5,4.1,9.7,4.4,13.4
						c0.5,4.1,0.2,8.2-0.7,12.2c-1.5,5.7-3.8,9.8-10.5,12.6C41.1,77.4,23.3,73,11,56l0,0c-0.4-0.5-1.1-0.7-1.7-0.3l-0.1,0
						c-0.6,0.4-0.8,1.1-0.5,1.7l0,0C21,75.1,38.8,79.8,48.2,76.7"/>
					<path class="st2" d="M48.2,76.7c9.3-3.1,11.8-9.1,13.7-16.6c0.9-3.7,1.2-7.5,0.8-11.3C62.3,44.6,59.9,38,58,34.1
						c-0.5-0.7-1.4-0.8-2.1-0.4l-0.1,0.1c-0.7,0.5-0.9,1.5-0.4,2.2c0,0,0,0,0,0l0,0c1.8,3.5,4.1,9.7,4.4,13.4
						c0.5,4.1,0.2,8.2-0.7,12.2c-1.5,5.7-3.8,9.8-10.5,12.6C41.1,77.4,23.3,73,11,56l0,0c-0.4-0.5-1.1-0.7-1.7-0.3l-0.1,0
						c-0.6,0.4-0.8,1.1-0.5,1.7l0,0C21,75.1,38.8,79.8,48.2,76.7z"/>
					<path class="st1" d="M70.6,43.3L70.6,43.3c0.7-0.1,1.2-0.7,1.1-1.3l0,0c-1.3-7.5-4.2-14.6-8.5-20.9c-0.4-0.5-0.7-1-1-1.5
						c-1.4-2.1-2.2-3.2-2.9-3.3c-0.2,0-0.5,0.1-0.7,0.2c-0.1,0.1-0.2,0.3-0.2,0.4c-0.2,0.6,0.3,1.2,1,2.1c0.6,0.7,1.1,1.5,1.5,2.4
						c0.1,0.1,0.2,0.4,0.4,0.7c3.9,6.2,6.6,13.1,8,20.2C69.4,43,70,43.5,70.6,43.3"/>
					<path class="st2" d="M70.6,43.3L70.6,43.3c0.7-0.1,1.2-0.7,1.1-1.3l0,0c-1.3-7.5-4.2-14.6-8.5-20.9c-0.4-0.5-0.7-1-1-1.5
						c-1.4-2.1-2.2-3.2-2.9-3.3c-0.2,0-0.5,0.1-0.7,0.2c-0.1,0.1-0.2,0.3-0.2,0.4c-0.2,0.6,0.3,1.2,1,2.1c0.6,0.7,1.1,1.5,1.5,2.4
						c0.1,0.1,0.2,0.4,0.4,0.7c3.9,6.2,6.6,13.1,8,20.2C69.4,43,69.9,43.4,70.6,43.3z"/>
					<path class="st1" d="M49.9,85.8c8.4-2.3,15.2-8.3,18.6-16.4c2.9-7,4.2-14.5,3.9-22.1c-0.2-0.6-0.7-0.9-1.3-0.8H71
						c-0.6,0.1-1,0.6-1,1.2c0.4,5.3-0.4,14.7-3.5,21.3c-3.6,7.5-9.2,12.6-17.1,14.5c-13.2,3.3-25.5-0.7-31.9-6
						C6.2,68.2-1.3,55.2-4,40.8c4.4,15.7,14.5,29.2,28.4,37.8c0.7,0.3,1.5,0,1.8-0.7c0,0,0,0,0,0v-0.1c0.3-0.6,0.1-1.3-0.4-1.7
						c-9.3-5.6-30.5-22.7-30.5-59c0.2-0.9,0.2-1.8-0.2-2.6c-0.2-0.2-0.4-0.3-0.6-0.4c-0.6-0.1-1.1,0.4-1.4,1.5
						c-0.1,0.4-0.2,0.8-0.2,1.2C-11,51.7,5.4,71.3,15.5,79.8C22.8,86,35.7,90,49.9,85.8"/>
					<path class="st2" d="M49.9,85.8c8.4-2.3,15.2-8.3,18.6-16.4c2.9-7,4.2-14.5,3.9-22.1c-0.2-0.6-0.7-0.9-1.3-0.8H71
						c-0.6,0.1-1,0.6-1,1.2c0.4,5.3-0.4,14.7-3.5,21.3c-3.6,7.5-9.2,12.6-17.1,14.5c-13.2,3.3-25.5-0.7-31.9-6
						C6.2,68.2-1.3,55.2-4,40.8c4.4,15.7,14.5,29.2,28.4,37.8c0.7,0.3,1.5,0,1.8-0.7c0,0,0,0,0,0v-0.1c0.3-0.6,0.1-1.3-0.4-1.7
						c-9.3-5.6-30.5-22.7-30.5-59c0.2-0.9,0.2-1.8-0.2-2.6c-0.2-0.2-0.4-0.3-0.6-0.4c-0.6-0.1-1.1,0.4-1.4,1.5
						c-0.1,0.4-0.2,0.8-0.2,1.2C-11,51.7,5.4,71.3,15.5,79.8C22.8,86,35.7,90,49.9,85.8z"/>
					<path class="st3" d="M160,52.9c2,0.8,2.8,1.4,2.6,2.2c0,0.2-0.1,0.3-0.3,0.4c-0.3,0.1-0.7,0.1-1-0.1c-0.3-0.1-0.6-0.3-1-0.4
						s-0.8-0.4-1.1-0.5c-0.2-0.1-0.3-0.1-0.5-0.2l-0.4-0.1c-9-2.5-18.6-1.7-27.1,2.1c-7.7,3.6-12.8,9.2-15.9,12.5
						c-2,2.2-3,3.2-3.8,2.9l0,0l-0.1-0.1c-0.3-0.2-0.5-0.6-0.5-1c0.2-3.1,12.8-13.3,18.2-15.9c9.5-4.4,20.2-5.2,30.2-2.2L160,52.9"
						/>
					<path class="st4" d="M160,52.9c2,0.8,2.8,1.4,2.6,2.2c0,0.2-0.1,0.3-0.3,0.4c-0.3,0.1-0.7,0.1-1-0.1c-0.3-0.1-0.6-0.3-1-0.4
						s-0.8-0.4-1.1-0.5c-0.2-0.1-0.3-0.1-0.5-0.2l-0.4-0.1c-9-2.5-18.6-1.7-27.1,2.1c-7.7,3.6-12.8,9.2-15.9,12.5
						c-2,2.2-3,3.2-3.8,2.9l0,0l-0.1-0.1c-0.3-0.2-0.5-0.6-0.5-1c0.2-3.1,12.8-13.3,18.2-15.9c9.5-4.4,20.2-5.2,30.2-2.2L160,52.9z"
						/>
					<path class="st3" d="M161.9,57.7c1.9,1,2.6,1.7,2.4,2.4c0,0.2-0.2,0.3-0.3,0.4c-0.3,0.1-0.7,0-1-0.2c-0.3-0.1-0.6-0.3-0.9-0.5
						s-0.7-0.4-1.1-0.6c-0.2-0.1-0.3-0.1-0.5-0.2l-0.4-0.2c-8.7-3.4-18.4-3.6-27.2-0.6c-8,2.8-13.7,7.9-17.1,10.9
						c-2.2,2-3.3,2.9-4.1,2.5l0,0l-0.1-0.1c-0.3-0.2-0.4-0.6-0.4-1c0.5-3.1,14-12,19.7-14c9.8-3.4,20.6-3.1,30.2,0.9L161.9,57.7"/>
					<path class="st4" d="M161.9,57.7c1.9,1,2.6,1.7,2.4,2.4c0,0.2-0.2,0.3-0.3,0.4c-0.3,0.1-0.7,0-1-0.2c-0.3-0.1-0.6-0.3-0.9-0.5
						s-0.7-0.4-1.1-0.6c-0.2-0.1-0.3-0.1-0.5-0.2l-0.4-0.2c-8.7-3.4-18.4-3.6-27.2-0.6c-8,2.8-13.7,7.9-17.1,10.9
						c-2.2,2-3.3,2.9-4.1,2.5l0,0l-0.1-0.1c-0.3-0.2-0.4-0.6-0.4-1c0.5-3.1,14-12,19.7-14c9.8-3.4,20.6-3.1,30.2,0.9L161.9,57.7z"/>
					<path class="st3" d="M138.6,21.3c0.3,0.1,0.6,0.3,0.8,0.7c0.1,0.3,0.1,0.5-0.1,0.8c-0.4,0.7-1.3,0.9-1.9,0.6c0,0,0,0-0.1,0
						l-0.2-0.1c-0.7-0.2-9.1-2.4-16.7-1.4c-0.4,0.1-0.8,0.1-1.2-0.1c-0.3-0.1-0.5-0.3-0.6-0.6c-0.1-0.2-0.1-0.5,0.1-0.7
						c0.3-0.5,1.2-0.8,1.5-0.8c8.4-1,17.3,1.4,17.7,1.5C138.1,21.2,138.4,21.2,138.6,21.3"/>
					<path class="st4" d="M138.6,21.3c0.3,0.1,0.6,0.3,0.8,0.7c0.1,0.3,0.1,0.5-0.1,0.8c-0.4,0.7-1.3,0.9-1.9,0.6c0,0,0,0-0.1,0
						l-0.2-0.1c-0.7-0.2-9.1-2.4-16.7-1.4c-0.4,0.1-0.8,0.1-1.2-0.1c-0.3-0.1-0.5-0.3-0.6-0.6c-0.1-0.2-0.1-0.5,0.1-0.7
						c0.3-0.5,1.2-0.8,1.5-0.8c8.4-1,17.3,1.4,17.7,1.5C138.1,21.2,138.3,21.2,138.6,21.3z"/>
					<path class="st3" d="M71.1,69.7c0.9,0.3,1.2,2,1.2,2.6c0.6,2.6,1.3,5.1,2.2,7.5c2.4,6.7,6.5,12.6,11.7,17.4
						c4.4,3.9,9.4,7,14.9,9.1c2.5,1,5,1.8,7.6,2.3c0.5,0.1,1.1,0.2,1.6,0.3c0.8,0.3,0.9,0.7,0.9,1.1c0,0.2-0.1,0.4-0.3,0.6
						c-0.6,0.5-2.1,0.2-2.5,0.2c-2.4-0.5-4.7-1.2-6.9-2.1c-5.9-2.3-11.4-5.6-16.2-9.8c-5.8-5.1-10.3-11.4-13.2-18.6
						c-1-2.5-1.8-5.2-2.3-7.8c-0.2-0.6-0.2-1.4,0-2c0.1-0.3,0.4-0.5,0.7-0.6C70.7,69.6,70.9,69.6,71.1,69.7"/>
					<path class="st4" d="M71.1,69.7c0.9,0.3,1.2,2,1.2,2.6c0.6,2.6,1.3,5.1,2.2,7.5c2.4,6.7,6.5,12.6,11.7,17.4
						c4.4,3.9,9.4,7,14.9,9.1c2.5,1,5,1.8,7.6,2.3c0.5,0.1,1.1,0.2,1.6,0.3c0.8,0.3,0.9,0.7,0.9,1.1c0,0.2-0.1,0.4-0.3,0.6
						c-0.6,0.5-2.1,0.2-2.5,0.2c-2.4-0.5-4.7-1.2-6.9-2.1c-5.9-2.3-11.4-5.6-16.2-9.8c-5.8-5.1-10.3-11.4-13.2-18.6
						c-1-2.5-1.8-5.2-2.3-7.8c-0.2-0.6-0.2-1.4,0-2c0.1-0.3,0.4-0.5,0.7-0.6C70.7,69.7,70.9,69.7,71.1,69.7z"/>
					<path class="st3" d="M69.4,79.1c0.7,0.3,0.9,1.3,0.9,1.5c0.6,2,1.5,3.9,2.5,5.7c3,5.6,7.1,10.5,11.9,14.6
						c3.5,2.7,7.2,5,11.2,6.9c1.4,0.7,3.6,1.7,6.6,3c0.2,0,0.5,0.1,0.7,0.2c1,0.4,1.1,1.1,1.1,1.4c0,0.3-0.2,0.6-0.4,0.8
						c-0.7,0.3-1.5,0.2-2.2-0.2l-0.2,0c-2-0.9-5.1-2.4-7-3.4c-3.8-2.1-7.4-4.5-10.8-7.3c-4.9-4.1-9.2-9-12.5-14.6
						c-1.2-2-2.2-4.1-3-6.3c-0.2-0.5-0.2-1.1-0.1-1.7c0.1-0.3,0.3-0.5,0.6-0.6C68.9,79,69.2,79,69.4,79.1"/>
					<path class="st4" d="M69.4,79.1c0.7,0.3,0.9,1.3,0.9,1.5c0.6,2,1.5,3.9,2.5,5.7c3,5.6,7.1,10.5,11.9,14.6
						c3.5,2.7,7.2,5,11.2,6.9c1.4,0.7,3.6,1.7,6.6,3c0.2,0,0.5,0.1,0.7,0.2c1,0.4,1.1,1.1,1.1,1.4c0,0.3-0.2,0.6-0.4,0.8
						c-0.7,0.3-1.5,0.2-2.2-0.2l-0.2,0c-2-0.9-5.1-2.4-7-3.4c-3.8-2.1-7.4-4.5-10.8-7.3c-4.9-4.1-9.2-9-12.5-14.6
						c-1.2-2-2.2-4.1-3-6.3c-0.2-0.5-0.2-1.1-0.1-1.7c0.1-0.3,0.3-0.5,0.6-0.6C68.9,79,69.1,79,69.4,79.1z"/>
					<path class="st3" d="M67.8,84.6c0.6,0.2,1,1.2,1.1,1.5c3.1,7,7.1,13,11.5,17.1c3,2.8,7.5,5.1,9.9,6.3l0.2,0.1
						c1,0.5,2.1,1,3.1,1.4l0.2,0.1c0.3,0.2,1.7,0.8,1.9,1.5c0.1,0.3,0,0.5-0.2,0.7c-0.4,0.5-1.2,0.5-2.7-0.1
						c-0.7-0.3-1.2-0.5-1.2-0.6c-1.1-0.5-2.1-1-3.2-1.6c-2.9-1.7-5.7-3.6-8.2-5.9C74.7,100,70.2,93.8,67,86.9
						c-0.1-0.1-0.8-1.4,0-2.2C67.2,84.5,67.5,84.4,67.8,84.6"/>
					<path class="st4" d="M67.8,84.6c0.6,0.2,1,1.2,1.1,1.5c3.1,7,7.1,13,11.5,17.1c3,2.8,7.5,5.1,9.9,6.3l0.2,0.1
						c1,0.5,2.1,1,3.1,1.4l0.2,0.1c0.3,0.2,1.7,0.8,1.9,1.5c0.1,0.3,0,0.5-0.2,0.7c-0.4,0.5-1.2,0.5-2.7-0.1
						c-0.7-0.3-1.2-0.5-1.2-0.6c-1.1-0.5-2.1-1-3.2-1.6c-2.9-1.7-5.7-3.6-8.2-5.9C74.7,100,70.2,93.8,67,86.9
						c-0.1-0.1-0.8-1.4,0-2.2C67.2,84.5,67.5,84.4,67.8,84.6z"/>
					<path class="st3" d="M74.8,104.4L74.8,104.4c-0.4,0.3-0.4,0.7-0.2,1.1c1,1,2,1.9,2.8,2.6c2.2,1.9,4.6,3.6,7.2,5.1
						c0.3,0.2,0.6,0.3,0.9,0.4c0.4,0.2,0.9,0.3,1.4,0.1c0.2-0.1,0.4-0.4,0.4-0.7c0.1-0.7-0.4-1.3-1.3-1.6l-0.3-0.1l0,0
						c-3.1-1.5-5.9-3.4-8.4-5.7c-0.4-0.4-0.8-0.8-1.2-1.3C75.7,104.1,75.2,104.1,74.8,104.4"/>
					<path class="st4" d="M74.8,104.4L74.8,104.4c-0.4,0.3-0.4,0.7-0.2,1.1c1,1,2,1.9,2.8,2.6c2.2,1.9,4.6,3.6,7.2,5.1
						c0.3,0.2,0.6,0.3,0.9,0.4c0.4,0.2,0.9,0.3,1.4,0.1c0.2-0.1,0.4-0.4,0.4-0.7c0.1-0.7-0.4-1.3-1.3-1.6l-0.3-0.1l0,0
						c-3.1-1.5-5.9-3.4-8.4-5.7c-0.4-0.4-0.8-0.8-1.2-1.3C75.7,104.1,75.1,104.1,74.8,104.4z"/>
					<path class="st3" d="M68.9,98.3c1.2,1.9,2.5,3.7,4,5.3c0.3,0.3,0.8,0.3,1.2,0l0.1-0.1c0.3-0.3,0.4-0.8,0.2-1.2
						c-1.3-1.7-2.5-3.4-3.6-5.2c-0.1-0.2-0.7-1.3-1.3-1.6c-0.2-0.1-0.5-0.1-0.7,0c-0.2,0.1-0.4,0.3-0.4,0.5
						C68.3,96.9,68.5,97.7,68.9,98.3"/>
					<path class="st4" d="M68.9,98.3c1.2,1.9,2.5,3.7,4,5.3c0.3,0.3,0.8,0.3,1.2,0l0.1-0.1c0.3-0.3,0.4-0.8,0.2-1.2
						c-1.3-1.7-2.5-3.4-3.6-5.2c-0.1-0.2-0.7-1.3-1.3-1.6c-0.2-0.1-0.5-0.1-0.7,0c-0.2,0.1-0.4,0.3-0.4,0.5
						C68.3,96.9,68.5,97.7,68.9,98.3z"/>
					<path class="st3" d="M139.7,38.1c-0.7,0.1-1.1,0.7-1.1,1.4v0.1c0.1,0.7,0.6,1.2,1.3,1.1l0,0c7.3-0.4,14.6,0.3,21.7,2.1l0.2,0.1
						c0.6,0.3,1.2,0.4,1.9,0.2c0.2-0.1,0.4-0.3,0.5-0.5c0.1-0.4,0.1-1-1.3-1.6c-0.2-0.1-0.4-0.1-0.6-0.2
						C154.9,38.7,147.3,37.8,139.7,38.1L139.7,38.1z"/>
					<path class="st4" d="M139.7,38.1c-0.7,0.1-1.1,0.7-1.1,1.4v0.1c0.1,0.7,0.6,1.2,1.3,1.1l0,0c7.3-0.4,14.6,0.3,21.7,2.1l0.2,0.1
						c0.6,0.3,1.2,0.4,1.9,0.2c0.2-0.1,0.4-0.3,0.5-0.5c0.1-0.4,0.1-1-1.3-1.6c-0.2-0.1-0.4-0.1-0.6-0.2
						C154.9,38.7,147.3,37.8,139.7,38.1L139.7,38.1z"/>
					<path class="st3" d="M94.2,99.1L94.2,99.1c-0.2,0.4-0.2,0.9,0.1,1.2c2,1.1,4,2,6.1,2.9c7,2.7,14.5,4.2,22,4.3
						c4.9-0.1,4.9-1,4.9-1.3c0-0.3-0.2-0.6-0.6-0.7c-1.4-0.2-2.9-0.3-4.4-0.1c-7.4-0.1-14.8-1.5-21.7-4.1c-1.9-0.7-3.7-1.6-5.4-2.5
						C94.9,98.6,94.4,98.8,94.2,99.1"/>
					<path class="st4" d="M94.2,99.1L94.2,99.1c-0.2,0.4-0.2,0.9,0.1,1.2c2,1.1,4,2,6.1,2.9c7,2.7,14.5,4.2,22,4.3
						c4.9-0.1,4.9-1,4.9-1.3c0-0.3-0.2-0.6-0.6-0.7c-1.4-0.2-2.9-0.3-4.4-0.1c-7.4-0.1-14.8-1.5-21.7-4.1c-1.9-0.7-3.7-1.6-5.4-2.5
						C94.9,98.6,94.4,98.8,94.2,99.1z"/>
					<path class="st3" d="M74.5,57.3c-0.5,4.1-0.5,8.3,0,12.4c0.7,6,3.2,17.3,12.5,25.6c1.4,1.2,2.9,2.4,4.4,3.4
						c0.4,0.1,0.9,0,1.1-0.4v-0.1c0.2-0.3,0.2-0.8-0.1-1.1c-1.5-1-3-2.1-4.3-3.3c-8.1-7.2-10.7-17.4-11.3-24.7
						c-0.4-3.8-0.3-7.7,0.1-11.5c0.1-0.6,0.4-2.4-0.6-2.8c-0.1-0.1-0.3-0.1-0.4-0.1C74.6,54.9,74.5,57.1,74.5,57.3"/>
					<path class="st4" d="M74.5,57.3c-0.5,4.1-0.5,8.3,0,12.4c0.7,6,3.2,17.3,12.5,25.6c1.4,1.2,2.9,2.4,4.4,3.4
						c0.4,0.1,0.9,0,1.1-0.4v-0.1c0.2-0.3,0.2-0.8-0.1-1.1c-1.5-1-3-2.1-4.3-3.3c-8.1-7.2-10.7-17.4-11.3-24.7
						c-0.4-3.8-0.3-7.7,0.1-11.5c0.1-0.6,0.4-2.4-0.6-2.8c-0.1-0.1-0.3-0.1-0.4-0.1C74.6,54.9,74.5,57.1,74.5,57.3z"/>
					<path class="st3" d="M97.8,94.2C88.4,88.9,83,80.4,82,70.7c-0.2-0.4-0.6-0.7-1.1-0.7h-0.1c-0.5,0-0.9,0.4-1,0.8
						c1.3,10.7,7.6,20.1,17,25.3c2.4,1.4,4.9,2.6,7.5,3.6c16,6.2,27.5,1.8,27.5,1.8c0.7-0.2,4.2-1.1,4.8-2.2
						c0.1-0.2,0.2-0.5,0.1-0.7c-0.1-0.2-0.2-0.4-0.4-0.4c-0.9-0.3-4,0.8-5.3,1.3c-0.1,0-10.9,4.1-26-1.8
						C102.6,96.7,100.2,95.6,97.8,94.2"/>
					<path class="st4" d="M97.8,94.2C88.4,88.9,83,80.4,82,70.7c-0.2-0.4-0.6-0.7-1.1-0.7h-0.1c-0.5,0-0.9,0.4-1,0.8
						c1.3,10.7,7.6,20.1,17,25.3c2.4,1.4,4.9,2.6,7.5,3.6c16,6.2,27.5,1.8,27.5,1.8c0.7-0.2,4.2-1.1,4.8-2.2
						c0.1-0.2,0.2-0.5,0.1-0.7c-0.1-0.2-0.2-0.4-0.4-0.4c-0.9-0.3-4,0.8-5.3,1.3c-0.1,0-10.9,4.1-26-1.8
						C102.6,96.7,100.1,95.5,97.8,94.2z"/>
					<path class="st3" d="M81.6,53.6c-1.4,3.9-2.1,8.1-2.2,12.3c0.1,0.6,0.6,1,1.2,0.9h0.1c0.6,0,1.1-0.5,1.1-1.1l0,0
						c0.2-3.5,1-7,2.1-10.4c7.1-20.9,28.5-31.3,57.2-27.9c0.6,0.1,1.1,0.2,1.5,0.2c0.8,0.2,1.4,0.3,1.7-0.6c0.1-0.3,0.1-0.9-1-1.3
						c-0.6-0.2-1.3-0.4-1.9-0.4c-15.2-2.1-28.3-0.6-38.8,4.5C92.7,34.5,85.1,43.2,81.6,53.6"/>
					<path class="st4" d="M81.6,53.6c-1.4,3.9-2.1,8.1-2.2,12.3c0.1,0.6,0.6,1,1.2,0.9h0.1c0.6,0,1.1-0.5,1.1-1.1l0,0
						c0.2-3.5,1-7,2.1-10.4c7.1-20.9,28.5-31.3,57.2-27.9c0.6,0.1,1.1,0.2,1.5,0.2c0.8,0.2,1.4,0.3,1.7-0.6c0.1-0.3,0.1-0.9-1-1.3
						c-0.6-0.2-1.3-0.4-1.9-0.4c-15.2-2.1-28.3-0.6-38.8,4.5C92.7,34.5,85.1,43.2,81.6,53.6z"/>
					<path class="st3" d="M104.7,88.2c-7.6-2.9-10.8-7.9-12.3-11.5c-2.3-5.8-1.6-13.8,1.4-20c0.2-0.5,0-1.2-0.4-1.5l-0.1-0.1
						c-0.5-0.3-1.2-0.2-1.5,0.3c0,0,0,0,0,0c-3.1,6.5-3.7,15-1.1,21.6c1.3,3.4,5,9.6,14.1,13.2c1.5,0.6,2.9,1,4.5,1.4
						c11.7,2.8,23.2,0.8,34.3-5.9l0.8-0.4c7.2-4,7.4-4.8,7.4-5.1c0-0.2,0-0.4-0.1-0.5l-0.1-0.1h-0.1c-0.6-0.2-1.8,0.4-5.4,2.4
						c-1.1,0.6-2.1,1.2-2.8,1.6c-0.3,0.2-0.8,0.4-1.4,0.8c-4.5,2.5-16.4,9.2-32.8,5.3C107.5,89.2,106.1,88.8,104.7,88.2"/>
					<path class="st4" d="M104.7,88.2c-7.6-2.9-10.8-7.9-12.3-11.5c-2.3-5.8-1.6-13.8,1.4-20c0.2-0.5,0-1.2-0.4-1.5l-0.1-0.1
						c-0.5-0.3-1.2-0.2-1.5,0.3c0,0,0,0,0,0c-3.1,6.5-3.7,15-1.1,21.6c1.3,3.4,5,9.6,14.1,13.2c1.5,0.6,2.9,1,4.5,1.4
						c11.7,2.8,23.2,0.8,34.3-5.9l0.8-0.4c7.2-4,7.4-4.8,7.4-5.1c0-0.2,0-0.4-0.1-0.5l-0.1-0.1h-0.1c-0.6-0.2-1.8,0.4-5.4,2.4
						c-1.1,0.6-2.1,1.2-2.8,1.6c-0.3,0.2-0.8,0.4-1.4,0.8c-4.5,2.5-16.4,9.2-32.8,5.3C107.5,89.2,106.1,88.7,104.7,88.2z"/>
					<path class="st3" d="M155.9,59.4c-0.1,0-15.9-4.6-27.2,2.3c-3.3,2.1-6.5,4.6-9.3,7.3l-0.2,0.2c-4,3.6-6.6,6-9,5.1
						c-0.3-0.1-0.6-0.3-0.9-0.5c-0.8-0.6-1.2-1.7-1-2.7c0.5-4.2,9.2-12.5,15.1-16c0.4-0.4,0.5-1,0.3-1.5v-0.1
						c-0.3-0.6-1.1-0.9-1.7-0.6l0,0c-6.1,3.9-15,13-15.6,18.1c-0.2,1.8,0.6,3.5,2.1,4.6c0.5,0.4,1.1,0.7,1.7,1
						c3.6,1.4,6.8-1.6,10.6-5c2.8-2.7,5.8-5,9-7.1c9.5-5.8,22.3-3.8,24.8-3.4c1,0.2,2,0.5,3,0.9l0.9,0.4l0.7,0.3
						c0.7,0.3,1.5,0.6,1.8,0c0.1-0.2,0.1-0.4,0-0.7c-0.1-0.4-0.6-1-2.8-1.8C157.4,59.9,156.7,59.6,155.9,59.4"/>
					<path class="st4" d="M155.9,59.4c-0.1,0-15.9-4.6-27.2,2.3c-3.3,2.1-6.5,4.6-9.3,7.3l-0.2,0.2c-4,3.6-6.6,6-9,5.1
						c-0.3-0.1-0.6-0.3-0.9-0.5c-0.8-0.6-1.2-1.7-1-2.7c0.5-4.2,9.2-12.5,15.1-16c0.4-0.4,0.5-1,0.3-1.5v-0.1
						c-0.3-0.6-1.1-0.9-1.7-0.6l0,0c-6.1,3.9-15,13-15.6,18.1c-0.2,1.8,0.6,3.5,2.1,4.6c0.5,0.4,1.1,0.7,1.7,1
						c3.6,1.4,6.8-1.6,10.6-5c2.8-2.7,5.8-5,9-7.1c9.5-5.8,22.3-3.8,24.8-3.4c1,0.2,2,0.5,3,0.9l0.9,0.4l0.7,0.3
						c0.7,0.3,1.5,0.6,1.8,0c0.1-0.2,0.1-0.4,0-0.7c-0.1-0.4-0.6-1-2.8-1.8C157.4,59.8,156.7,59.6,155.9,59.4z"/>
					<path class="st3" d="M125.9,51.3c-0.6,0.3-0.9,1.1-0.5,1.8l0.1,0.1c0.3,0.5,0.9,0.8,1.5,0.7c6.4-3,13.5-5.9,33.9-3.2
						c0.7,0.3,1.5,0.4,2.3,0.1c0.2-0.1,0.4-0.3,0.4-0.6c0.1-0.4,0-0.9-1.1-1.3c-0.4-0.2-0.8-0.3-1.3-0.3
						C140.6,45.8,133,48,125.9,51.3L125.9,51.3z"/>
					<path class="st4" d="M125.9,51.3c-0.6,0.3-0.9,1.1-0.5,1.8l0.1,0.1c0.3,0.5,0.9,0.8,1.5,0.7c6.4-3,13.5-5.9,33.9-3.2
						c0.7,0.3,1.5,0.4,2.3,0.1c0.2-0.1,0.4-0.3,0.4-0.6c0.1-0.4,0-0.9-1.1-1.3c-0.4-0.2-0.8-0.3-1.3-0.3
						C140.6,45.8,133,48,125.9,51.3L125.9,51.3z"/>
					<path class="st3" d="M118.2,39.5L118.2,39.5c0.2,0.6,0.7,0.8,1.2,0.7c8.1-3.1,16.7-4.6,25.4-4.4c11.4,0.3,14,2,15,2.4l0.4,0.2
						l0.2,0.1c0.2,0.1,0.4,0.2,0.7,0.3c0.6,0.2,1.5,0.5,2,0c0.2-0.2,0.3-0.5,0.2-0.7c-0.1-0.6-1-1.1-2.2-1.5l-0.3-0.1
						c-2-0.8-7.3-2.3-15.8-2.7c-9-0.2-17.9,1.3-26.3,4.4C118.1,38.3,117.9,38.9,118.2,39.5"/>
					<path class="st4" d="M118.2,39.5L118.2,39.5c0.2,0.6,0.7,0.8,1.2,0.7c8.1-3.1,16.7-4.6,25.4-4.4c11.4,0.3,14,2,15,2.4l0.4,0.2
						l0.2,0.1c0.2,0.1,0.4,0.2,0.7,0.3c0.6,0.2,1.5,0.5,2,0c0.2-0.2,0.3-0.5,0.2-0.7c-0.1-0.6-1-1.1-2.2-1.5l-0.3-0.1
						c-2-0.8-7.3-2.3-15.8-2.7c-9-0.2-17.9,1.3-26.3,4.4C118.2,38.3,117.9,38.9,118.2,39.5z"/>
					<path class="st3" d="M155.6,63.9l-0.2-0.1c-4-1-8.2-1.3-12.4-0.8c-0.6,0.2-1,0.8-0.9,1.4v0.1c0.1,0.6,0.8,0.7,1.4,0.7
						c3.6-0.6,5.6-0.5,10.5,0.2h0.1c0.3,0.1,0.8,0.3,1.4,0.5c2.1,0.8,3.1,1.1,3.6,0.8c0.2-0.1,0.3-0.3,0.2-0.6
						c-0.1-0.6-0.8-1.2-2.6-1.9L155.6,63.9"/>
					<path class="st4" d="M155.6,63.9l-0.2-0.1c-4-1-8.2-1.3-12.4-0.8c-0.6,0.2-1,0.8-0.9,1.4v0.1c0.1,0.6,0.8,0.7,1.4,0.7
						c3.6-0.6,5.6-0.5,10.5,0.2h0.1c0.3,0.1,0.8,0.3,1.4,0.5c2.1,0.8,3.1,1.1,3.6,0.8c0.2-0.1,0.3-0.3,0.2-0.6
						c-0.1-0.6-0.8-1.2-2.6-1.9L155.6,63.9z"/>
					<path class="st3" d="M113.4,83.1c0,0,0,1.1,1.3,1.1C121,84,127,81.9,132,78.2c0.9-0.7,8.6-8.6,17.8-8.2c1.3,0,2.7,0.2,3.9,0.7
						c0.5,0.2,1.1,0.4,1.5-0.2c0.2-0.2,0.2-0.4,0.1-0.6c-0.1-0.3-0.4-0.6-1-0.8c-1.5-0.6-3.2-0.8-4.8-0.8
						c-9.9,0.3-13.1,2.6-18.4,6.6l-0.8,0.6c-5.4,4-11.1,6.3-16.1,6.7C113.9,82.2,113.5,82.6,113.4,83.1"/>
					<path class="st4" d="M113.4,83.1c0,0,0,1.1,1.3,1.1C121,84,127,81.9,132,78.2c0.9-0.7,8.6-8.6,17.8-8.2c1.3,0,2.7,0.2,3.9,0.7
						c0.5,0.2,1.1,0.4,1.5-0.2c0.2-0.2,0.2-0.4,0.1-0.6c-0.1-0.3-0.4-0.6-1-0.8c-1.5-0.6-3.2-0.8-4.8-0.8
						c-9.9,0.3-13.1,2.6-18.4,6.6l-0.8,0.6c-5.4,4-11.1,6.3-16.1,6.7C113.9,82.2,113.5,82.6,113.4,83.1z"/>
					<path class="st3" d="M99.6,63.1c-2.1,4.8-2.8,9.6-0.2,14.1c1.6,2.6,4.1,4.6,7,5.5c0.8,0.3,3.9,1.1,3.9,1.1c0.6,0,1,0.1,1-0.5
						v-0.1c0.1-0.5-0.3-1-0.9-1.1c0,0,0,0,0,0l0,0c-1.4-0.3-2.9-0.7-4.3-1.2c-2.3-0.9-4.3-2.6-5.5-4.7c-1.8-3.2-1.2-7.6,0.9-12.2
						c1.7-3.8,4.5-7,6.5-9.5h0.1c5.3-5.5,15.1-11.6,27.8-13.5c0.6-0.2,0.9-0.7,0.9-1.3v-0.1c0-0.6-0.6-1.2-1.2-1.2
						C115.1,41.2,102.9,55.6,99.6,63.1"/>
					<path class="st4" d="M99.6,63.1c-2.1,4.8-2.8,9.6-0.2,14.1c1.6,2.6,4.1,4.6,7,5.5c0.8,0.3,3.9,1.1,3.9,1.1c0.6,0,1,0.1,1-0.5
						v-0.1c0.1-0.5-0.3-1-0.9-1.1c0,0,0,0,0,0l0,0c-1.4-0.3-2.9-0.7-4.3-1.2c-2.3-0.9-4.3-2.6-5.5-4.7c-1.8-3.2-1.2-7.6,0.9-12.2
						c1.7-3.8,4.5-7,6.5-9.5h0.1c5.3-5.5,15.1-11.6,27.8-13.5c0.6-0.2,0.9-0.7,0.9-1.3v-0.1c0-0.6-0.6-1.2-1.2-1.2
						C115.1,41.2,102.9,55.6,99.6,63.1z"/>
					<path class="st3" d="M140.1,65v-0.1c-0.2-0.6-0.7-1.1-1.4-1.1c-1.7,0.5-3.4,1-5.1,1.6c-4.3,1.8-8.4,4.3-11.9,7.4l-0.2,0.1
						c-4.3,3.5-8.1,6.5-12.9,4.6c-0.4-0.2-0.8-0.3-1.2-0.5c-1.8-0.9-3.1-2.6-3.5-4.5l0,0c0.1-0.5-0.2-0.9-0.7-1h-0.1
						c-0.4,0-0.8,0.2-0.8,0.7c0,0,0,0.1,0,0.1c0.4,2.8,2.1,5.2,4.7,6.4c0.5,0.3,1.1,0.5,1.6,0.7c5.8,2.2,10-0.6,14.6-4.3
						c3.4-2.9,7.2-5.3,11.3-7c1.6-0.6,3.1-1.1,4.6-1.6l0,0C139.8,66.3,140.2,65.7,140.1,65"/>
					<path class="st4" d="M140.1,65v-0.1c-0.2-0.6-0.7-1.1-1.4-1.1c-1.7,0.5-3.4,1-5.1,1.6c-4.3,1.8-8.4,4.3-11.9,7.4l-0.2,0.1
						c-4.3,3.5-8.1,6.5-12.9,4.6c-0.4-0.2-0.8-0.3-1.2-0.5c-1.8-0.9-3.1-2.6-3.5-4.5l0,0c0.1-0.5-0.2-0.9-0.7-1h-0.1
						c-0.4,0-0.8,0.2-0.8,0.7c0,0,0,0.1,0,0.1c0.4,2.8,2.1,5.2,4.7,6.4c0.5,0.3,1.1,0.5,1.6,0.7c5.8,2.2,10-0.6,14.6-4.3
						c3.4-2.9,7.2-5.3,11.3-7c1.6-0.6,3.1-1.1,4.6-1.6l0,0C139.8,66.3,140.2,65.7,140.1,65z"/>
					<path class="st3" d="M102.9,69.9L102.9,69.9c0.6,0.1,1-0.3,1.1-0.7c0,0,0,0,0,0l0,0c1.9-5.1,7.7-12.1,11.3-15.1
						c2.9-2.3,18.5-13.6,47.2-6.5l0.4,0.2c1.6,0.6,2.1,0.2,2.4-0.3c0.1-0.2,0.1-0.5,0-0.7c-0.3-0.5-0.7-0.9-1.3-1
						c-0.3-0.1-0.6-0.2-0.9-0.3c-30.6-7.5-47.7,5.5-49.6,7c-4.7,3.9-9.9,11.2-11.3,16.5C102.1,69.4,102.5,69.8,102.9,69.9"/>
					<path class="st4" d="M102.9,69.9L102.9,69.9c0.6,0.1,1-0.3,1.1-0.7c0,0,0,0,0,0l0,0c1.9-5.1,7.7-12.1,11.3-15.1
						c2.9-2.3,18.5-13.6,47.2-6.5l0.4,0.2c1.6,0.6,2.1,0.2,2.4-0.3c0.1-0.2,0.1-0.5,0-0.7c-0.3-0.5-0.7-0.9-1.3-1
						c-0.3-0.1-0.6-0.2-0.9-0.3c-30.6-7.5-47.7,5.5-49.6,7c-4.7,3.9-9.9,11.2-11.3,16.5C102.1,69.4,102.4,69.9,102.9,69.9
						C102.9,69.9,102.9,69.9,102.9,69.9z"/>
					<path class="st3" d="M132.9,82.8l0.1,0.2c0.4,0.7,1.2,0.9,1.9,0.6l0,0c3.2-1.7,6.2-3.6,9.2-5.6c1.2-0.8,2.2-1.4,2.8-1.8
						c1.6-0.8,3.3-1.2,5.1-1.2c1.4-0.1,2.6-0.2,2.7-1.2c0-0.2,0-0.6-0.6-0.9c-1.1-0.4-3.7-0.3-6.1,0.3s-5.3,2.3-8.8,4.4
						c-1.8,1-3.6,2.1-5.6,3.2C133,81.2,132.7,82,132.9,82.8"/>
					<path class="st4" d="M132.9,82.8l0.1,0.2c0.4,0.7,1.2,0.9,1.9,0.6l0,0c3.2-1.7,6.2-3.6,9.2-5.6c1.2-0.8,2.2-1.4,2.8-1.8
						c1.6-0.8,3.3-1.2,5.1-1.2c1.4-0.1,2.6-0.2,2.7-1.2c0-0.2,0-0.6-0.6-0.9c-1.1-0.4-3.7-0.3-6.1,0.3s-5.3,2.3-8.8,4.4
						c-1.8,1-3.6,2.1-5.6,3.2C133,81.2,132.7,82,132.9,82.8z"/>
					<path class="st3" d="M93.4,72.8c1.7,8.6,6.8,11.5,13.3,14c3.2,1.2,6.6,1.9,10,1.9c3.8,0.1,9.9-1.3,13.6-2.6
						c0.7-0.4,0.9-1.2,0.6-1.9l-0.1-0.1c-0.4-0.7-1.2-0.9-1.9-0.6l0,0c-3.3,1.2-9.1,2.6-12.5,2.5c-3.7,0-7.3-0.7-10.8-1.9
						c-4.9-1.9-8.3-4.5-10.1-10.7c-2-7,3.9-22.5,20.4-31.5l0,0c0.5-0.3,0.7-0.9,0.5-1.5v-0.1c-0.3-0.6-0.9-0.8-1.4-0.6l0,0
						C98,48.7,91.7,64.1,93.4,72.8"/>
					<path class="st4" d="M93.4,72.8c1.7,8.6,6.8,11.5,13.3,14c3.2,1.2,6.6,1.9,10,1.9c3.8,0.1,9.9-1.3,13.6-2.6
						c0.7-0.4,0.9-1.2,0.6-1.9l-0.1-0.1c-0.4-0.7-1.2-0.9-1.9-0.6l0,0c-3.3,1.2-9.1,2.6-12.5,2.5c-3.7,0-7.3-0.7-10.8-1.9
						c-4.9-1.9-8.3-4.5-10.1-10.7c-2-7,3.9-22.5,20.4-31.5l0,0c0.5-0.3,0.7-0.9,0.5-1.5v-0.1c-0.3-0.6-0.9-0.8-1.4-0.6l0,0
						C97.9,48.7,91.7,64.1,93.4,72.8z"/>
					<path class="st3" d="M120.7,96.4L120.7,96.4c0,0.7,0.5,1.1,1.1,1.2l0,0c6.8-0.4,13.5-2.2,19.6-5.3c0.5-0.3,1-0.5,1.5-0.8
						c2-1,3.1-1.6,3.2-2.2c0-0.2,0-0.4-0.1-0.6c-0.1-0.1-0.2-0.2-0.4-0.3c-0.5-0.2-1.1,0.1-2,0.6c-0.7,0.4-1.5,0.8-2.3,1.1l-0.7,0.3
						c-6,2.7-12.4,4.4-18.9,4.9C121.2,95.3,120.7,95.8,120.7,96.4"/>
					<path class="st4" d="M120.7,96.4L120.7,96.4c0,0.7,0.5,1.1,1.1,1.2l0,0c6.8-0.4,13.5-2.2,19.6-5.3c0.5-0.3,1-0.5,1.5-0.8
						c2-1,3.1-1.6,3.2-2.2c0-0.2,0-0.4-0.1-0.6c-0.1-0.1-0.2-0.2-0.4-0.3c-0.5-0.2-1.1,0.1-2,0.6c-0.7,0.4-1.5,0.8-2.3,1.1l-0.7,0.3
						c-6,2.7-12.4,4.4-18.9,4.9C121.2,95.3,120.7,95.8,120.7,96.4z"/>
					<path class="st3" d="M85.1,73.3c1.1,7.7,5.7,14.5,12.5,18.4c5.9,3.4,12.5,5.4,19.3,5.9c0.5-0.1,0.9-0.5,0.9-1.1v-0.1
						c0-0.5-0.4-1-0.9-1.1c-4.7-0.2-13-1.9-18.5-5.4c-6.3-4-10.2-9.6-11.1-16.9c-1.5-12.2,3.4-22.6,8.9-27.8
						c9.6-8.9,21.9-14.2,35-15c-14.5,2.2-27.7,9.7-36.9,21.2c-0.3,0.6-0.1,1.3,0.4,1.6l0.1,0c0.5,0.3,1.1,0.2,1.5-0.2
						c6.1-7.7,23.6-24.7,55.9-20.7c0.7,0.3,1.6,0.3,2.3,0.1c0.2-0.1,0.3-0.3,0.4-0.5c0.1-0.6-0.3-1-1.2-1.4
						c-0.3-0.1-0.7-0.2-1.1-0.3c-30.4-7.3-49.6,5.2-58.4,13.2C88,49.1,82.9,60.2,85.1,73.3"/>
					<path class="st4" d="M85.1,73.3c1.1,7.7,5.7,14.5,12.5,18.4c5.9,3.4,12.5,5.4,19.3,5.9c0.5-0.1,0.9-0.5,0.9-1.1v-0.1
						c0-0.5-0.4-1-0.9-1.1c-4.7-0.2-13-1.9-18.5-5.4c-6.3-4-10.2-9.6-11.1-16.9c-1.5-12.2,3.4-22.6,8.9-27.8
						c9.6-8.9,21.9-14.2,35-15c-14.5,2.2-27.7,9.7-36.9,21.2c-0.3,0.6-0.1,1.3,0.4,1.6l0.1,0c0.5,0.3,1.1,0.2,1.5-0.2
						c6.1-7.7,23.6-24.7,55.9-20.7c0.7,0.3,1.6,0.3,2.3,0.1c0.2-0.1,0.3-0.3,0.4-0.5c0.1-0.6-0.3-1-1.2-1.4
						c-0.3-0.1-0.7-0.2-1.1-0.3c-30.4-7.3-49.6,5.2-58.4,13.2C88,49.1,83,60.2,85.1,73.3z"/>
					<path class="st5" d="M110.4,206.8c-2.4,1-8.5,2.3-9,1.5c-0.1-0.2-0.2-0.4-0.1-0.6c0.2-0.4,0.6-0.7,1-0.8
						c0.3-0.1,5.2-1.5,5.7-1.6s1-0.3,1.4-0.5c0.2-0.1,0.8-0.2,0.9-0.3l0.4-0.3c10.3-5.8,18.2-14.6,22-24.8
						c3.7-9.7,3.5-18.9,3.4-24.4c-0.1-3.7-0.1-5.4,0.9-5.8l0,0h0.1c0.5-0.1,0.9,0.1,1.2,0.4c2.5,2.9,0.1,22.5-2.5,29.3
						c-4.6,11.8-13.4,21.6-24.7,27.4L110.4,206.8"/>
					<path class="st6" d="M110.4,206.8c-2.4,1-8.5,2.3-9,1.5c-0.1-0.2-0.2-0.4-0.1-0.6c0.2-0.4,0.6-0.7,1-0.8
						c0.3-0.1,5.2-1.5,5.7-1.6s1-0.3,1.4-0.5c0.2-0.1,0.8-0.2,0.9-0.3l0.4-0.3c10.3-5.8,18.2-14.6,22-24.8
						c3.7-9.7,3.5-18.9,3.4-24.4c-0.1-3.7-0.1-5.4,0.9-5.8l0,0h0.1c0.5-0.1,0.9,0.1,1.2,0.4c2.5,2.9,0.1,22.5-2.5,29.3
						c-4.6,11.8-13.4,21.6-24.7,27.4L110.4,206.8z"/>
					<path class="st5" d="M104.7,204.1c-2.4,0.8-6.9,1.6-7.4,0.8c-0.1-0.2-0.1-0.4,0-0.6c0.2-0.4,0.6-0.6,1-0.7
						c0.3-0.1,0.8-0.2,1.3-0.3s4.2-1.1,4.7-1.2c0.2-0.1,0.4-0.1,0.6-0.2l0.5-0.2c10.9-4.8,19.5-12.7,24.4-22.5
						c4.6-9.2,5.4-18.4,5.8-23.9c0.3-3.7,0.4-5.3,1.5-5.6h0.1h0.1c0.5,0,0.9,0.2,1.2,0.6c2.2,3.1-2.2,22.4-5.4,28.9
						c-5.8,11.3-15.5,20.1-27.3,24.8L104.7,204.1"/>
					<path class="st6" d="M104.7,204.1c-2.4,0.8-6.9,1.6-7.4,0.8c-0.1-0.2-0.1-0.4,0-0.6c0.2-0.4,0.6-0.6,1-0.7
						c0.3-0.1,0.8-0.2,1.3-0.3s4.2-1.1,4.7-1.2c0.2-0.1,0.4-0.1,0.6-0.2l0.5-0.2c10.9-4.8,19.5-12.7,24.4-22.5
						c4.6-9.2,5.4-18.4,5.8-23.9c0.3-3.7,0.4-5.3,1.5-5.6h0.1h0.1c0.5,0,0.9,0.2,1.2,0.6c2.2,3.1-2.2,22.4-5.4,28.9
						c-5.8,11.3-15.5,20.1-27.3,24.8L104.7,204.1z"/>
					<path class="st5" d="M155.9,216.4c-0.4,0.2-0.8,0.2-1.2,0.1c-0.3-0.1-0.5-0.4-0.6-0.7c-0.3-0.9,0.2-1.7,1.3-2.1l0.2-0.1
						c0.8-0.4,10-5.7,15.9-12.9c0.3-0.4,0.7-0.8,1.2-1c0.3-0.1,0.7-0.1,1,0c0.3,0.1,0.4,0.4,0.5,0.6c0,0.7-0.2,1.4-0.6,2
						c-6.5,7.9-16.4,13.4-16.8,13.6C156.5,216.1,156.2,216.3,155.9,216.4"/>
					<path class="st6" d="M155.9,216.4c-0.4,0.2-0.8,0.2-1.2,0.1c-0.3-0.1-0.5-0.4-0.6-0.7c-0.3-0.9,0.2-1.7,1.3-2.1l0.2-0.1
						c0.8-0.4,10-5.7,15.9-12.9c0.3-0.4,0.7-0.8,1.2-1c0.3-0.1,0.7-0.1,1,0c0.3,0.1,0.4,0.4,0.5,0.6c0,0.7-0.2,1.4-0.6,2
						c-6.5,7.9-16.4,13.4-16.8,13.6C156.5,216.1,156.2,216.3,155.9,216.4z"/>
					<path class="st5" d="M174.2,116.8c-1.1,0.5-2.7-0.8-3.2-1.2c-2.6-1.8-5.4-3.4-8.3-4.7c-7.8-3.8-16.4-5.6-25-5.4
						c-7.1,0.3-14.1,1.9-20.7,4.6c-3,1.2-5.8,2.7-8.5,4.5c-0.5,0.4-1.1,0.7-1.7,1c-1,0.4-1.4,0.1-1.7-0.2c-0.2-0.2-0.2-0.5-0.2-0.7
						c0.1-0.9,1.6-2,2.1-2.3c2.5-1.6,5.1-2.9,7.9-4c7.1-3,14.8-4.7,22.5-5.1c9.4-0.4,18.7,1.3,27.2,5.2c3,1.4,5.9,3,8.7,4.9
						c0.7,0.4,1.4,1,1.7,1.7c0.1,0.4,0.1,0.8-0.1,1.2C174.7,116.5,174.5,116.7,174.2,116.8"/>
					<path class="st6" d="M174.2,116.8c-1.1,0.5-2.7-0.8-3.2-1.2c-2.6-1.8-5.4-3.4-8.3-4.7c-7.8-3.8-16.4-5.6-25-5.4
						c-7.1,0.3-14.1,1.9-20.7,4.6c-3,1.2-5.8,2.7-8.5,4.5c-0.5,0.4-1.1,0.7-1.7,1c-1,0.4-1.4,0.1-1.7-0.2c-0.2-0.2-0.2-0.5-0.2-0.7
						c0.1-0.9,1.6-2,2.1-2.3c2.5-1.6,5.1-2.9,7.9-4c7.1-3,14.8-4.7,22.5-5.1c9.4-0.4,18.7,1.3,27.2,5.2c3,1.4,5.9,3,8.7,4.9
						c0.7,0.4,1.4,1,1.7,1.7c0.1,0.4,0.1,0.8-0.1,1.2C174.7,116.5,174.5,116.7,174.2,116.8z"/>
					<path class="st5" d="M167.8,107.2c-0.7,0.2-1.5,0-2.1-0.5c-2.2-1.2-4.6-2.1-7-2.8c-7.4-2.3-15.1-3.3-22.8-2.8
						c-3.9,0.3-8.9,1.4-15.7,3.4c-1.9,0.6-4.6,1.5-8.3,2.9c-0.2,0.2-0.5,0.3-0.8,0.4c-0.7,0.4-1.6,0.3-2.2-0.3
						c-0.3-0.3-0.4-0.7-0.3-1.1c0.2-0.6,0.8-1.2,2-1.7l0.3-0.1c2.5-0.9,6.5-2.2,9.1-2.9c5.1-1.4,10.4-2.3,15.6-2.7
						c7.8-0.6,15.6,0.2,23.2,2.2c2.8,0.7,5.5,1.7,8,3c0.6,0.3,1.2,0.8,1.5,1.4c0.1,0.3,0.1,0.7,0,1
						C168.3,106.8,168.1,107,167.8,107.2"/>
					<path class="st6" d="M167.8,107.2c-0.7,0.2-1.5,0-2.1-0.5c-2.2-1.2-4.6-2.1-7-2.8c-7.4-2.3-15.1-3.3-22.8-2.8
						c-3.9,0.3-8.9,1.4-15.7,3.4c-1.9,0.6-4.6,1.5-8.3,2.9c-0.2,0.2-0.5,0.3-0.8,0.4c-0.7,0.4-1.6,0.3-2.2-0.3
						c-0.3-0.3-0.4-0.7-0.3-1.1c0.2-0.6,0.8-1.2,2-1.7l0.3-0.1c2.5-0.9,6.5-2.2,9.1-2.9c5.1-1.4,10.4-2.3,15.6-2.7
						c7.8-0.6,15.6,0.2,23.2,2.2c2.8,0.7,5.5,1.7,8,3c0.6,0.3,1.2,0.8,1.5,1.4c0.1,0.3,0.1,0.7,0,1
						C168.3,106.8,168.1,107,167.8,107.2z"/>
					<path class="st5" d="M164.5,101.1c-0.8,0.1-1.6,0-2.2-0.3c-8.6-3.5-17.3-5.4-24.5-5.3c-4.9,0.1-10.9,1.9-14.1,2.9l-0.3,0.1
						c-1.4,0.4-2.7,0.9-3.9,1.3l-0.2,0.1c-0.4,0.2-2.1,0.8-3,0.3c-0.3-0.2-0.4-0.5-0.5-0.8c-0.1-0.8,0.7-1.5,2.5-2.2
						c0.8-0.3,1.5-0.6,1.6-0.6c1.3-0.5,2.7-0.9,4.1-1.3c4-1,8-1.6,12.1-1.7c7.1-0.2,18,1,27.1,4.8c0.1,0,1.9,0.6,1.8,1.9
						C165.1,100.6,164.9,100.9,164.5,101.1"/>
					<path class="st6" d="M164.5,101.1c-0.8,0.1-1.6,0-2.2-0.3c-8.6-3.5-17.3-5.4-24.5-5.3c-4.9,0.1-10.9,1.9-14.1,2.9l-0.3,0.1
						c-1.4,0.4-2.7,0.9-3.9,1.3l-0.2,0.1c-0.4,0.2-2.1,0.8-3,0.3c-0.3-0.2-0.4-0.5-0.5-0.8c-0.1-0.8,0.7-1.5,2.5-2.2
						c0.8-0.3,1.5-0.6,1.6-0.6c1.3-0.5,2.7-0.9,4.1-1.3c4-1,8-1.6,12.1-1.7c7.1-0.2,18,1,27.1,4.8c0.1,0,1.9,0.6,1.8,1.9
						C165.1,100.6,164.9,100.9,164.5,101.1z"/>
					<path class="st5" d="M141.6,89.6L141.6,89.6c0-0.6-0.3-1-0.8-1.2c-1.7-0.1-3.3,0-4.7,0.1c-3.6,0.2-7.1,0.7-10.6,1.6
						c-0.4,0.1-0.8,0.2-1.2,0.4c-0.8,0.3-1.2,0.7-1.3,1.1c-0.1,0.3,0,0.6,0.2,0.9c0.6,0.7,1.7,0.8,2.5,0.3c0.1,0,0.2-0.1,0.4-0.2
						l0,0c1.5-0.5,6.5-2.7,12-2.7c0.7,0,1.4,0,2.1,0.1C140.8,89.9,141.5,90.1,141.6,89.6"/>
					<path class="st6" d="M141.6,89.6L141.6,89.6c0-0.6-0.3-1-0.8-1.2c-1.7-0.1-3.3,0-4.7,0.1c-3.6,0.2-7.1,0.7-10.6,1.6
						c-0.4,0.1-0.8,0.2-1.2,0.4c-0.8,0.3-1.2,0.7-1.3,1.1c-0.1,0.3,0,0.6,0.2,0.9c0.6,0.7,1.7,0.8,2.5,0.3c0.1,0,0.2-0.1,0.4-0.2
						l0,0c1.5-0.5,6.5-2.7,12-2.7c0.7,0,1.4,0,2.1,0.1C140.9,89.9,141.6,90.1,141.6,89.6z"/>
					<path class="st5" d="M151.9,89.9c-2.6-0.7-5.3-1.1-8-1.3c-0.5,0-1,0.5-1,1v0.1c0,0.6,0.3,1.1,0.9,1.2c2.5,0.4,5.1,0.9,7.6,1.6
						c0.8,0.3,1.7,0.4,2.6,0.3c0.3-0.1,0.5-0.3,0.6-0.6c0.1-0.3,0.1-0.6-0.1-0.8C154,90.5,152.4,90,151.9,89.9"/>
					<path class="st6" d="M151.9,89.9c-2.6-0.7-5.3-1.1-8-1.3c-0.5,0-1,0.5-1,1v0.1c0,0.6,0.3,1.1,0.9,1.2c2.5,0.4,5.1,0.9,7.6,1.6
						c0.8,0.3,1.7,0.4,2.6,0.3c0.3-0.1,0.5-0.3,0.6-0.6c0.1-0.3,0.1-0.6-0.1-0.8C153.9,90.5,152.4,90,151.9,89.9z"/>
					<path class="st5" d="M140.7,202.6c0.5-0.6,0.4-1.6-0.2-2.1l-0.1-0.1c-0.6-0.5-1.6-0.5-2.1,0.1l0,0c-6.1,6.5-13.1,12-20.8,16.5
						l-0.2,0.1c-0.8,0.2-1.4,0.7-1.8,1.4c-0.1,0.3-0.1,0.6,0.1,0.9c0.2,0.4,0.8,1,2.4,0.3c0.3-0.1,0.5-0.2,0.7-0.4
						C126.9,215,134.3,209.3,140.7,202.6L140.7,202.6z"/>
					<path class="st6" d="M140.7,202.6c0.5-0.6,0.4-1.6-0.2-2.1l-0.1-0.1c-0.6-0.5-1.6-0.5-2.1,0.1l0,0c-6.1,6.5-13.1,12-20.8,16.5
						l-0.2,0.1c-0.8,0.2-1.4,0.7-1.8,1.4c-0.1,0.3-0.1,0.6,0.1,0.9c0.2,0.4,0.8,1,2.4,0.3c0.3-0.1,0.5-0.2,0.7-0.4
						C126.9,215,134.3,209.3,140.7,202.6L140.7,202.6z"/>
					<path class="st5" d="M129.1,110.6L129.1,110.6c-0.1-0.6-0.6-1-1.1-1c-2.6,0.7-5.2,1.6-7.8,2.7c-8.5,3.6-16.2,8.6-23,14.8
						c-4.2,4.2-3.4,5-3.1,5.3c0.3,0.3,0.7,0.3,1.1,0.1c1.2-0.5,3.7-3.3,3.9-3.6c6.6-6.2,14.2-11.1,22.5-14.7
						c2.2-0.9,4.5-1.7,6.9-2.4C129,111.6,129.3,111.1,129.1,110.6"/>
					<path class="st6" d="M129.1,110.6L129.1,110.6c-0.1-0.6-0.6-1-1.1-1c-2.6,0.7-5.2,1.6-7.8,2.7c-8.5,3.6-16.2,8.6-23,14.8
						c-4.2,4.2-3.4,5-3.1,5.3c0.3,0.3,0.7,0.3,1.1,0.1c1.2-0.5,3.7-3.3,3.9-3.6c6.6-6.2,14.2-11.1,22.5-14.7
						c2.2-0.9,4.5-1.7,6.9-2.4C129,111.6,129.2,111.1,129.1,110.6z"/>
					<path class="st5" d="M181.7,130.7c-3-4-6.5-7.7-10.4-10.9c-5.7-4.7-17.4-12.5-32.6-11.9c-2.3,0.1-4.5,0.4-6.7,0.8
						c-0.5,0.2-0.8,0.8-0.7,1.3v0.1c0.1,0.5,0.5,0.8,1,0.9c2.2-0.4,4.3-0.7,6.5-0.8c13.2-0.6,24.1,6.3,30.9,12.1
						c3.6,3,6.8,6.4,9.6,10.2c0.4,0.6,1.6,2.5,2.9,2c0.2-0.1,0.3-0.2,0.4-0.3C183.7,132.9,181.9,130.8,181.7,130.7"/>
					<path class="st6" d="M181.7,130.7c-3-4-6.5-7.7-10.4-10.9c-5.7-4.7-17.4-12.5-32.6-11.9c-2.3,0.1-4.5,0.4-6.7,0.8
						c-0.5,0.2-0.8,0.8-0.7,1.3v0.1c0.1,0.5,0.5,0.8,1,0.9c2.2-0.4,4.3-0.7,6.5-0.8c13.2-0.6,24.1,6.3,30.9,12.1
						c3.6,3,6.8,6.4,9.6,10.2c0.4,0.6,1.6,2.5,2.9,2c0.2-0.1,0.3-0.2,0.4-0.3C183.7,132.9,181.9,130.8,181.7,130.7z"/>
					<path class="st5" d="M130.1,117.9c12.7-3.2,24.6-0.4,33.7,7.3c0.5,0.2,1.2,0.1,1.6-0.3l0.1-0.1c0.4-0.4,0.5-1.1,0.2-1.6
						c-10.1-8.3-23.6-11.2-36.3-7.9c-3.3,0.8-6.5,1.9-9.7,3.2c-19.3,8-25.6,21.6-25.7,21.7c-0.5,0.7-2.8,4.5-2.4,6
						c0.1,0.3,0.3,0.6,0.5,0.7c0.2,0.1,0.5,0.1,0.7,0c1.1-0.4,2.8-4.1,3.5-5.6c0.1-0.1,6-12.8,24.3-20.4
						C123.8,119.7,126.9,118.7,130.1,117.9"/>
					<path class="st6" d="M130.1,117.9c12.7-3.2,24.6-0.4,33.7,7.3c0.5,0.2,1.2,0.1,1.6-0.3l0.1-0.1c0.4-0.4,0.5-1.1,0.2-1.6
						c-10.1-8.3-23.6-11.2-36.3-7.9c-3.3,0.8-6.5,1.9-9.7,3.2c-19.3,8-25.6,21.6-25.7,21.7c-0.5,0.7-2.8,4.5-2.4,6
						c0.1,0.3,0.3,0.6,0.5,0.7c0.2,0.1,0.5,0.1,0.7,0c1.1-0.4,2.8-4.1,3.5-5.6c0.1-0.1,6-12.8,24.3-20.4
						C123.8,119.7,126.9,118.7,130.1,117.9z"/>
					<path class="st5" d="M178.6,139.9c-2.1-4.6-5-8.9-8.5-12.6c-0.6-0.4-1.3-0.3-1.8,0.2l-0.1,0.1c-0.5,0.5-0.5,1.4,0,1.9l0,0
						c2.8,3.3,5.2,6.9,7,10.9c11.4,24.4,1.5,51.6-26.6,72.8c-0.6,0.5-1.1,0.8-1.5,1c-0.8,0.5-1.5,0.9-0.9,2c0.2,0.4,0.7,0.9,1.9,0.4
						c0.7-0.3,1.4-0.8,2.1-1.3c15.2-11,25.4-23.4,30.2-36.7C185.1,166,184.4,152,178.6,139.9"/>
					<path class="st6" d="M178.6,139.9c-2.1-4.6-5-8.9-8.5-12.6c-0.6-0.4-1.3-0.3-1.8,0.2l-0.1,0.1c-0.5,0.5-0.5,1.4,0,1.9l0,0
						c2.8,3.3,5.2,6.9,7,10.9c11.4,24.4,1.5,51.6-26.6,72.8c-0.6,0.5-1.1,0.8-1.5,1c-0.8,0.5-1.5,0.9-0.9,2c0.2,0.4,0.7,0.9,1.9,0.4
						c0.7-0.3,1.4-0.8,2.1-1.3c15.2-11,25.4-23.4,30.2-36.7C185,166,184.4,152,178.6,139.9z"/>
					<path class="st5" d="M129.2,129.1c9.1-3.8,16.2-2.3,20.5-0.3c7,3.2,13.1,10.8,15.6,18.8c0.2,0.7,0.9,1.1,1.6,0.9h0.1
						c0.7-0.1,1.2-0.8,1.1-1.5c0,0,0,0,0,0c-2.8-8.4-9.4-16.3-17.3-19.8c-4.1-1.8-12.5-4.2-23.5,0.4c-1.8,0.7-3.5,1.6-5.1,2.5
						c-12.6,7.4-21.1,18.9-25.2,34.1c-0.1,0.4-0.2,0.8-0.3,1c-3,9.6-2.4,10.4-2.2,10.7c0.1,0.2,0.3,0.3,0.6,0.3h0.2l0.1-0.1
						c0.7-0.3,1.3-1.8,2.7-6.6c0.4-1.5,0.8-2.9,1.2-3.8c0.2-0.4,0.3-1.1,0.6-1.9c1.8-6,6.6-22,24.3-32.4
						C125.8,130.6,127.5,129.8,129.2,129.1"/>
					<path class="st6" d="M129.2,129.1c9.1-3.8,16.2-2.3,20.5-0.3c7,3.2,13.1,10.8,15.6,18.8c0.2,0.7,0.9,1.1,1.6,0.9h0.1
						c0.7-0.1,1.2-0.8,1.1-1.5c0,0,0,0,0,0c-2.8-8.4-9.4-16.3-17.3-19.8c-4.1-1.8-12.5-4.2-23.5,0.4c-1.8,0.7-3.5,1.6-5.1,2.5
						c-12.6,7.4-21.1,18.9-25.2,34.1c-0.1,0.4-0.2,0.8-0.3,1c-3,9.6-2.4,10.4-2.2,10.7c0.1,0.2,0.3,0.3,0.6,0.3h0.2l0.1-0.1
						c0.7-0.3,1.3-1.8,2.7-6.6c0.4-1.5,0.8-2.9,1.2-3.8c0.2-0.4,0.3-1.1,0.6-1.9c1.8-6,6.6-22,24.3-32.4
						C125.8,130.6,127.5,129.8,129.2,129.1z"/>
					<path class="st5" d="M108.5,197.6c0.2-0.1,17.8-9.4,22-25c1.1-4.7,1.8-9.5,1.9-14.4v-0.4c0.4-6.5,0.7-10.9,3.5-12.1
						c0.4-0.2,0.8-0.3,1.2-0.3c1.3-0.2,2.5,0.4,3.2,1.5c3.2,4.1,2.4,18.7,0.3,26.7c0,0.7,0.4,1.3,1.1,1.6h0.1c0.8,0.3,1.7-0.1,2-0.9
						l0,0c2-8.6,2.2-24.1-1.6-29c-1.4-1.7-3.6-2.6-5.7-2.2c-0.8,0.1-1.5,0.3-2.3,0.6c-4.4,1.8-4.7,7.2-5.1,13.4
						c-0.1,4.7-0.8,9.3-1.8,13.9c-3.4,13.1-16.4,22.2-18.9,23.9c-1.1,0.7-2.2,1.3-3.4,1.7l-1.1,0.4l-0.8,0.3
						c-0.8,0.4-1.8,0.8-1.6,1.5c0.1,0.3,0.3,0.5,0.5,0.6c0.4,0.2,1.3,0.3,4-0.8C106.9,198.5,107.7,198.1,108.5,197.6"/>
					<path class="st6" d="M108.5,197.6c0.2-0.1,17.8-9.4,22-25c1.1-4.7,1.8-9.5,1.9-14.4v-0.4c0.4-6.5,0.7-10.9,3.5-12.1
						c0.4-0.2,0.8-0.3,1.2-0.3c1.3-0.2,2.5,0.4,3.2,1.5c3.2,4.1,2.4,18.7,0.3,26.7c0,0.7,0.4,1.3,1.1,1.6h0.1c0.8,0.3,1.7-0.1,2-0.9
						l0,0c2-8.6,2.2-24.1-1.6-29c-1.4-1.7-3.6-2.6-5.7-2.2c-0.8,0.1-1.5,0.3-2.3,0.6c-4.4,1.8-4.7,7.2-5.1,13.4
						c-0.1,4.7-0.8,9.3-1.8,13.9c-3.4,13.1-16.4,22.2-18.9,23.9c-1.1,0.7-2.2,1.3-3.4,1.7l-1.1,0.4l-0.8,0.3
						c-0.8,0.4-1.8,0.8-1.6,1.5c0.1,0.3,0.3,0.5,0.5,0.6c0.4,0.2,1.3,0.3,4-0.8C106.9,198.4,107.7,198.1,108.5,197.6z"/>
					<path class="st5" d="M141.7,179.4c0.3-0.8-0.2-1.7-1-2h-0.1c-0.7-0.2-1.5,0-1.9,0.6c-3,8.1-6.9,16.6-27.1,31.4
						c-0.5,0.2-1.9,1-2.1,1.8c-0.1,0.3-0.1,0.6,0.1,0.9c0.2,0.4,0.8,0.8,2.1,0.2c0.5-0.2,1-0.5,1.4-0.8
						C133.4,196.7,138.3,188.4,141.7,179.4L141.7,179.4z"/>
					<path class="st6" d="M141.7,179.4c0.3-0.8-0.2-1.7-1-2h-0.1c-0.7-0.2-1.5,0-1.9,0.6c-3,8.1-6.9,16.6-27.1,31.4
						c-0.5,0.2-1.9,1-2.1,1.8c-0.1,0.3-0.1,0.6,0.1,0.9c0.2,0.4,0.8,0.8,2.1,0.2c0.5-0.2,1-0.5,1.4-0.8
						C133.4,196.7,138.3,188.4,141.7,179.4L141.7,179.4z"/>
					<path class="st5" d="M158.5,183.2h-0.1c-0.6-0.2-1.2,0-1.6,0.5c-4.5,9.5-10.8,18.1-18.6,25.3c-10.3,9.3-14,10.1-15.2,10.6
						c-0.2,0.1-0.4,0.1-0.5,0.2l-0.3,0.1c-0.2,0.1-0.6,0.2-0.9,0.3c-0.8,0.3-1.8,0.9-1.8,1.8c0,0.3,0.2,0.6,0.4,0.8
						c0.6,0.4,1.8,0.1,3.3-0.5l0.4-0.2c2.4-1,8.4-4.1,16.1-11c8.1-7.4,14.7-16.3,19.5-26.1C159.5,184.3,159.2,183.5,158.5,183.2"/>
					<path class="st6" d="M158.5,183.2h-0.1c-0.6-0.2-1.2,0-1.6,0.5c-4.5,9.5-10.8,18.1-18.6,25.3c-10.3,9.3-14,10.1-15.2,10.6
						c-0.2,0.1-0.4,0.1-0.5,0.2l-0.3,0.1c-0.2,0.1-0.6,0.2-0.9,0.3c-0.8,0.3-1.8,0.9-1.8,1.8c0,0.3,0.2,0.6,0.4,0.8
						c0.6,0.4,1.8,0.1,3.3-0.5l0.4-0.2c2.4-1,8.4-4.1,16.1-11c8.1-7.4,14.7-16.3,19.5-26.1C159.6,184.3,159.2,183.5,158.5,183.2z"/>
					<path class="st5" d="M105,193.4l0.2-0.1c4.4-2.5,7.4-5.1,11.5-9.8c0.4-0.7,0.2-1.5-0.4-2l-0.1-0.1c-0.6-0.4-1.2,0.1-1.8,0.6
						c-2.6,3.6-4.4,5.2-9.4,8.7l-0.1,0.1c-0.3,0.2-0.9,0.4-1.6,0.7c-2.5,1.1-3.7,1.6-3.8,2.4c0,0.3,0.1,0.5,0.3,0.7
						c0.6,0.5,1.7,0.4,3.8-0.6L105,193.4"/>
					<path class="st6" d="M105,193.4l0.2-0.1c4.4-2.5,7.4-5.1,11.5-9.8c0.4-0.7,0.2-1.5-0.4-2l-0.1-0.1c-0.6-0.4-1.2,0.1-1.8,0.6
						c-2.6,3.6-4.4,5.2-9.4,8.7l-0.1,0.1c-0.3,0.2-0.9,0.4-1.6,0.7c-2.5,1.1-3.7,1.6-3.8,2.4c0,0.3,0.1,0.5,0.3,0.7
						c0.6,0.5,1.7,0.4,3.8-0.6L105,193.4z"/>
					<path class="st5" d="M125.7,140.9c0,0-0.9-1-2,0.2c-5.3,5.5-8.8,12.4-10.2,19.8c-0.2,1.3-0.3,14.8-8.7,22.3
						c-1.2,1.1-2.5,2-4,2.7c-0.7,0.3-1.2,0.6-1.2,1.5c0,0.3,0.2,0.5,0.4,0.7c0.5,0.2,1.1,0.2,1.6-0.1c1.8-0.8,3.5-1.9,4.9-3.3
						c8.4-8.6,9.3-13.3,10.6-21.3l0.2-1.1c1.4-8.1,4.4-14.9,8.5-19.5C126.2,142.1,126.2,141.4,125.7,140.9"/>
					<path class="st6" d="M125.7,140.9c0,0-0.9-1-2,0.2c-5.3,5.5-8.8,12.4-10.2,19.8c-0.2,1.3-0.3,14.8-8.7,22.3
						c-1.2,1.1-2.5,2-4,2.7c-0.7,0.3-1.2,0.6-1.2,1.5c0,0.3,0.2,0.5,0.4,0.7c0.5,0.2,1.1,0.2,1.6-0.1c1.8-0.8,3.5-1.9,4.9-3.3
						c8.4-8.6,9.3-13.3,10.6-21.3l0.2-1.1c1.4-8.1,4.4-14.9,8.5-19.5C126.2,142,126.1,141.4,125.7,140.9z"/>
					<path class="st5" d="M154.8,146.8c-2.2-6-5.6-10.8-11.8-12.5c-3.5-1-7.1-0.5-10.8,1.1c-0.9,0.4-4.3,2.3-4.3,2.3
						c-0.5,0.5-0.9,0.7-0.5,1.2l0.1,0.1c0.4,0.5,1.2,0.6,1.7,0.2l0,0c1.5-0.9,3.1-1.8,4.7-2.6c2.8-1.1,5.9-1.3,8.8-0.5
						c4.3,1.2,7.4,5.6,9.6,11.4c1.7,4.8,2,9.9,2.3,13.8c0,0,0,0,0,0.1c-0.1,9.3-3.5,22.9-13,35.3c-0.4,0.6-0.2,1.4,0.3,1.9l0.1,0.1
						c0.6,0.5,1.5,0.6,2.1,0.1C159.7,179,158.2,156.2,154.8,146.8"/>
					<path class="st6" d="M154.8,146.8c-2.2-6-5.6-10.8-11.8-12.5c-3.5-1-7.1-0.5-10.8,1.1c-0.9,0.4-4.3,2.3-4.3,2.3
						c-0.5,0.5-0.9,0.7-0.5,1.2l0.1,0.1c0.4,0.5,1.2,0.6,1.7,0.2l0,0c1.5-0.9,3.1-1.8,4.7-2.6c2.8-1.1,5.9-1.3,8.8-0.5
						c4.3,1.2,7.4,5.6,9.6,11.4c1.7,4.8,2,9.9,2.3,13.8c0,0,0,0,0,0.1c-0.1,9.3-3.5,22.9-13,35.3c-0.4,0.6-0.2,1.4,0.3,1.9l0.1,0.1
						c0.6,0.5,1.5,0.6,2.1,0.1C159.8,179.1,158.2,156.2,154.8,146.8z"/>
					<path class="st5" d="M117.6,179.3l0.1,0.1c0.7,0.4,1.5,0.3,2.1-0.2c1.1-1.9,2.2-3.8,3.1-5.7c2.9-6.2,3.6-11.7,4.2-16.5v-0.3
						c0.9-6.7,1.6-12.5,7.5-15c0.5-0.2,1-0.4,1.4-0.5c2.3-0.8,4.9-0.4,6.9,1l0,0c0.3,0.4,1,0.5,1.4,0.2l0.1-0.1
						c0.4-0.3,0.5-0.9,0.2-1.3c0,0-0.1-0.1-0.1-0.1c-2.7-2.1-6.2-2.7-9.5-1.6c-0.7,0.2-1.3,0.4-2,0.7c-6.9,2.9-8.3,9-9.2,16.1
						c-0.6,4.7-1.3,10-4,15.8c-0.9,1.9-1.8,3.7-2.7,5.2l0,0C116.7,177.9,116.9,178.8,117.6,179.3"/>
					<path class="st6" d="M117.6,179.3l0.1,0.1c0.7,0.4,1.5,0.3,2.1-0.2c1.1-1.9,2.2-3.8,3.1-5.7c2.9-6.2,3.6-11.7,4.2-16.5v-0.3
						c0.9-6.7,1.6-12.5,7.5-15c0.5-0.2,1-0.4,1.4-0.5c2.3-0.8,4.9-0.4,6.9,1l0,0c0.3,0.4,1,0.5,1.4,0.2l0.1-0.1
						c0.4-0.3,0.5-0.9,0.2-1.3c0,0-0.1-0.1-0.1-0.1c-2.7-2.1-6.2-2.7-9.5-1.6c-0.7,0.2-1.3,0.4-2,0.7c-6.9,2.9-8.3,9-9.2,16.1
						c-0.6,4.7-1.3,10-4,15.8c-0.9,1.9-1.8,3.7-2.7,5.2l0,0C116.7,177.9,116.9,178.8,117.6,179.3z"/>
					<path class="st5" d="M146.1,143.6L146.1,143.6c-0.5,0.4-0.6,1.1-0.3,1.5l0,0c2.6,6,3.5,17.1,2.8,22.8
						c-0.5,4.4-4.7,27.6-35.9,45.6l-0.5,0.2c-1.9,0.8-2.1,1.6-1.8,2.2c0.1,0.3,0.3,0.5,0.6,0.6c0.7,0.2,1.4,0.1,1.9-0.2
						c0.3-0.2,0.7-0.3,1-0.5c33.2-19.2,37.2-45.2,37.6-48.1c0.9-7.4-0.8-18.2-4-24.1C147.2,143.3,146.6,143.2,146.1,143.6"/>
					<path class="st6" d="M146.1,143.6L146.1,143.6c-0.5,0.4-0.6,1.1-0.3,1.5l0,0c2.6,6,3.5,17.1,2.8,22.8
						c-0.5,4.4-4.7,27.6-35.9,45.6l-0.5,0.2c-1.9,0.8-2.1,1.6-1.8,2.2c0.1,0.3,0.3,0.5,0.6,0.6c0.7,0.2,1.4,0.1,1.9-0.2
						c0.3-0.2,0.7-0.3,1-0.5c33.2-19.2,37.2-45.2,37.6-48.1c0.9-7.4-0.8-18.2-4-24.1C147.2,143.3,146.6,143.3,146.1,143.6z"/>
					<path class="st5" d="M108.9,157.7l-0.3-0.1c-0.9-0.3-1.8,0.2-2.2,1.1l0,0c-1.3,4.2-2.5,8.4-3.3,12.7c-0.4,1.7-0.7,3.1-0.9,3.9
						c-0.8,2-2,3.8-3.5,5.3c-1.2,1.3-2.1,2.3-1.4,3.3c0.1,0.2,0.5,0.6,1.3,0.2c1.3-0.5,3.5-2.9,5.1-5.4s2.7-6.5,4-11.2
						c0.7-2.4,1.4-5,2.2-7.6C110.1,159.1,109.7,158.1,108.9,157.7"/>
					<path class="st6" d="M108.9,157.7l-0.3-0.1c-0.9-0.3-1.8,0.2-2.2,1.1l0,0c-1.3,4.2-2.5,8.4-3.3,12.7c-0.4,1.7-0.7,3.1-0.9,3.9
						c-0.8,2-2,3.8-3.5,5.3c-1.2,1.3-2.1,2.3-1.4,3.3c0.1,0.2,0.5,0.6,1.3,0.2c1.3-0.5,3.5-2.9,5.1-5.4s2.7-6.5,4-11.2
						c0.7-2.4,1.4-5,2.2-7.6C110.1,159.1,109.7,158.1,108.9,157.7z"/>
					<path class="st5" d="M152,133.1c-8.8-6.1-15.7-4.3-23.5-1.1c-3.8,1.7-7.4,3.9-10.4,6.8c-3.4,3.1-7.6,9.5-9.7,13.8
						c-0.3,0.9,0.2,1.8,1.1,2.1l0.1,0.1c0.9,0.3,1.8-0.2,2.1-1.1l0,0c1.9-3.9,5.7-10,8.8-12.7c3.3-3.1,7-5.6,11.1-7.4
						c6-2.5,11.1-3.1,17.9,0.9c7.7,4.5,15.6,23,8.7,44.9l0,0c-0.2,0.7,0.2,1.4,0.8,1.7h0.1c0.7,0.3,1.5,0,1.8-0.7l0,0
						C168.4,157.9,160.9,139.1,152,133.1"/>
					<path class="st6" d="M152,133.1c-8.8-6.1-15.7-4.3-23.5-1.1c-3.8,1.7-7.4,3.9-10.4,6.8c-3.4,3.1-7.6,9.5-9.7,13.8
						c-0.3,0.9,0.2,1.8,1.1,2.1l0.1,0.1c0.9,0.3,1.8-0.2,2.1-1.1l0,0c1.9-3.9,5.7-10,8.8-12.7c3.3-3.1,7-5.6,11.1-7.4
						c6-2.5,11.1-3.1,17.9,0.9c7.7,4.5,15.6,23,8.7,44.9l0,0c-0.2,0.7,0.2,1.4,0.8,1.7h0.1c0.7,0.3,1.5,0,1.8-0.7l0,0
						C168.4,158,160.9,139.2,152,133.1z"/>
					<path class="st5" d="M108.1,135.4L108.1,135.4c-0.6-0.6-1.4-0.6-1.9-0.1l0,0c-5.7,6.1-10.1,13.3-12.8,21.2
						c-0.2,0.6-0.4,1.3-0.7,1.9c-0.9,2.6-1.4,4-1,4.7c0.1,0.2,0.4,0.4,0.6,0.4c0.2,0,0.4,0,0.6-0.1c0.6-0.3,0.9-1.1,1.2-2.2
						c0.3-1,0.6-2,1.1-2.9c0.1-0.1,0.2-0.4,0.3-0.8c2.9-7.4,7.2-14.3,12.5-20.3C108.6,136.8,108.6,135.9,108.1,135.4"/>
					<path class="st6" d="M108.1,135.4L108.1,135.4c-0.6-0.6-1.4-0.6-1.9-0.1l0,0c-5.7,6.1-10.1,13.3-12.8,21.2
						c-0.2,0.6-0.4,1.3-0.7,1.9c-0.9,2.6-1.4,4-1,4.7c0.1,0.2,0.4,0.4,0.6,0.4c0.2,0,0.4,0,0.6-0.1c0.6-0.3,0.9-1.1,1.2-2.2
						c0.3-1,0.6-2,1.1-2.9c0.1-0.1,0.2-0.4,0.3-0.8c2.9-7.4,7.2-14.3,12.5-20.3C108.6,136.8,108.6,136,108.1,135.4z"/>
					<path class="st5" d="M158.9,125.6c-7.5-5.8-17.3-7.9-26.5-5.5c-8,2-15.5,5.8-21.9,11.1c-0.4,0.5-0.3,1.2,0.1,1.7l0.1,0.1
						c0.5,0.5,1.2,0.5,1.7,0.1c4.3-3.8,13-9.3,20.9-10.9c8.9-1.8,17.1-0.2,24,5.5c11.6,9.4,16.1,22.8,15.7,31.9
						c-0.8,15.9-7.2,31-18,42.8c10.9-14.2,16.1-32,14.5-49.8c-0.2-0.8-1-1.3-1.7-1.1h-0.1c-0.8,0.1-1.3,0.8-1.3,1.6
						c1.2,11.9,0.2,41.6-31.6,65.4c-0.5,0.2-1.9,1-2.1,1.9c-0.1,0.3-0.1,0.6,0.1,0.8c0.4,0.6,1.1,0.7,2.2,0.2
						c0.4-0.2,0.8-0.4,1.2-0.6c32.9-19.3,39.2-46.5,40.1-61C176.9,149.3,171.9,135.3,158.9,125.6"/>
					<path class="st6" d="M158.9,125.6c-7.5-5.8-17.3-7.9-26.5-5.5c-8,2-15.5,5.8-21.9,11.1c-0.4,0.5-0.3,1.2,0.1,1.7l0.1,0.1
						c0.5,0.5,1.2,0.5,1.7,0.1c4.3-3.8,13-9.3,20.9-10.9c8.9-1.8,17.1-0.2,24,5.5c11.6,9.4,16.1,22.8,15.7,31.9
						c-0.8,15.9-7.2,31-18,42.8c10.9-14.2,16.1-32,14.5-49.8c-0.2-0.8-1-1.3-1.7-1.1h-0.1c-0.8,0.1-1.3,0.8-1.3,1.6
						c1.2,11.9,0.2,41.6-31.6,65.4c-0.5,0.2-1.9,1-2.1,1.9c-0.1,0.3-0.1,0.6,0.1,0.8c0.4,0.6,1.1,0.7,2.2,0.2
						c0.4-0.2,0.8-0.4,1.2-0.6c32.9-19.3,39.2-46.5,40.1-61C176.9,149.3,171.9,135.3,158.9,125.6z"/>
					<path class="st7" d="M20.4,78.9c0-2.2,0.3-3.3,1.1-3.4c0.2,0,0.4,0,0.5,0.1c0.2,0.3,0.4,0.6,0.3,1c0,0.3,0,0.7-0.1,1.1
						s-0.1,0.9-0.1,1.3c0,0.2,0,0.4,0,0.6c0,0.1,0,0.2,0.1,0.4c1,9.9,5.5,19.1,12.6,26.1c6.6,6.3,14.1,9.2,18.6,11
						c3,1.2,4.3,1.7,4.3,2.6l0,0v0.1c-0.1,0.4-0.4,0.7-0.8,0.8c-3.2,1-18.1-7.5-22.8-11.8c-8-7.7-12.9-18-13.8-29
						C20.4,79.4,20.4,79.1,20.4,78.9"/>
					<path class="st8" d="M20.4,78.9c0-2.2,0.3-3.3,1.1-3.4c0.2,0,0.4,0,0.5,0.1c0.2,0.3,0.4,0.6,0.3,1c0,0.3,0,0.7-0.1,1.1
						s-0.1,0.9-0.1,1.3c0,0.2,0,0.4,0,0.6c0,0.1,0,0.2,0.1,0.4c1,9.9,5.5,19.1,12.6,26.1c6.6,6.3,14.1,9.2,18.6,11
						c3,1.2,4.3,1.7,4.3,2.6l0,0v0.1c-0.1,0.4-0.4,0.7-0.8,0.8c-3.2,1-18.1-7.5-22.8-11.8c-8-7.7-12.9-18-13.8-29
						C20.4,79.5,20.4,79.2,20.4,78.9z"/>
					<path class="st7" d="M24.4,75.2c0.2-2.2,0.7-3.2,1.5-3.3c0.2,0,0.4,0,0.5,0.2c0.2,0.3,0.3,0.7,0.2,1.1c0,0.3-0.1,0.7-0.2,1.1
						s-0.2,0.9-0.2,1.3c0,0.2,0,0.4,0,0.6c0,0.1,0,0.2,0,0.5c0.1,9.9,3.6,19.6,9.9,27.2c5.9,6.8,13.1,10.5,17.3,12.7
						c2.8,1.5,4.2,2.1,4.1,3.1l0,0v0.1c-0.1,0.4-0.5,0.7-0.9,0.8c-3.2,0.7-17.3-9.2-21.5-14.1C28,97.9,24.2,87.2,24.3,76.1
						C24.3,75.8,24.3,75.5,24.4,75.2"/>
					<path class="st8" d="M24.4,75.2c0.2-2.2,0.7-3.2,1.5-3.3c0.2,0,0.4,0,0.5,0.2c0.2,0.3,0.3,0.7,0.2,1.1c0,0.3-0.1,0.7-0.2,1.1
						s-0.2,0.9-0.2,1.3c0,0.2,0,0.4,0,0.6c0,0.1,0,0.2,0,0.5c0.1,9.9,3.6,19.6,9.9,27.2c5.9,6.8,13.1,10.5,17.3,12.7
						c2.8,1.5,4.2,2.1,4.1,3.1l0,0v0.1c-0.1,0.4-0.5,0.7-0.9,0.8c-3.2,0.7-17.3-9.2-21.5-14.1C28,97.9,24.2,87.2,24.3,76.1
						C24.4,75.8,24.4,75.5,24.4,75.2z"/>
					<path class="st7" d="M-2.6,112.3c0-0.4,0.1-0.7,0.4-1c0.2-0.2,0.5-0.3,0.8-0.2c0.8,0.1,1.3,0.7,1.3,1.7c0,0.1,0,0.2,0,0.2
						c0.1,0.7,1.2,10,5,17.2c0.2,0.4,0.4,0.8,0.4,1.3c0,0.3-0.1,0.6-0.4,0.8c-0.2,0.2-0.4,0.2-0.7,0.2c-0.6-0.1-1.2-0.9-1.4-1.2
						c-4.2-7.9-5.3-17.7-5.3-18.1C-2.5,112.9-2.6,112.6-2.6,112.3"/>
					<path class="st8" d="M-2.6,112.3c0-0.4,0.1-0.7,0.4-1c0.2-0.2,0.5-0.3,0.8-0.2c0.8,0.1,1.3,0.7,1.3,1.7c0,0.1,0,0.2,0,0.2
						c0.1,0.7,1.2,10,5,17.2c0.2,0.4,0.4,0.8,0.4,1.3c0,0.3-0.1,0.6-0.4,0.8c-0.2,0.2-0.4,0.2-0.7,0.2c-0.6-0.1-1.2-0.9-1.4-1.2
						c-4.2-7.9-5.3-17.7-5.3-18.1C-2.5,112.9-2.6,112.6-2.6,112.3z"/>
					<path class="st7" d="M71.4,160.4c0-1,1.6-1.9,2.1-2.2c2.3-1.5,4.5-3.2,6.6-5.1c5.7-5,10-11.3,12.7-18.3
						c2.2-5.8,3.2-12,3.2-18.2c0-2.8-0.2-5.6-0.7-8.4c-0.2-0.6-0.2-1.1-0.3-1.7c0-0.9,0.4-1.2,0.7-1.3c0.2-0.1,0.5,0,0.7,0.1
						c0.7,0.4,1.1,2,1.2,2.4c0.4,2.5,0.6,5.1,0.6,7.7c0,6.8-1.2,13.5-3.4,19.8c-2.8,7.7-7.3,14.6-13.3,20.2c-2.1,2-4.4,3.8-6.8,5.4
						c-0.5,0.5-1.2,0.8-1.9,0.8c-0.4,0-0.7-0.2-0.9-0.5C71.5,160.9,71.4,160.7,71.4,160.4"/>
					<path class="st8" d="M71.4,160.4c0-1,1.6-1.9,2.1-2.2c2.3-1.5,4.5-3.2,6.6-5.1c5.7-5,10-11.3,12.7-18.3
						c2.2-5.8,3.2-12,3.2-18.2c0-2.8-0.2-5.6-0.7-8.4c-0.2-0.6-0.2-1.1-0.3-1.7c0-0.9,0.4-1.2,0.7-1.3c0.2-0.1,0.5,0,0.7,0.1
						c0.7,0.4,1.1,2,1.2,2.4c0.4,2.5,0.6,5.1,0.6,7.7c0,6.8-1.2,13.5-3.4,19.8c-2.8,7.7-7.3,14.6-13.3,20.2c-2.1,2-4.4,3.8-6.8,5.4
						c-0.5,0.5-1.2,0.8-1.9,0.8c-0.4,0-0.7-0.2-0.9-0.5C71.5,160.9,71.4,160.7,71.4,160.4z"/>
					<path class="st7" d="M81.4,158.5c0-0.8,0.9-1.4,1.1-1.5c1.7-1.4,3.2-3,4.6-4.7c4.3-5.2,7.7-11.1,9.9-17.4
						c1.3-4.5,2.2-9.1,2.5-13.8c0.2-1.7,0.3-4.2,0.5-7.7c-0.1-0.3-0.1-0.5-0.1-0.8c0-1.2,0.6-1.5,1-1.7c0.3-0.1,0.7-0.1,0.9,0.1
						c0.6,0.6,0.8,1.4,0.7,2.2c0,0.2,0,0.3,0,0.3c-0.1,2.3-0.4,6-0.7,8.3c-0.6,4.6-1.6,9.1-3,13.5c-2.2,6.5-5.4,12.5-9.5,17.9
						c-1.5,2-3.2,3.8-5.1,5.4c-0.4,0.4-1,0.7-1.6,0.7c-0.3,0-0.6-0.1-0.8-0.4C81.6,159,81.5,158.8,81.4,158.5"/>
					<path class="st8" d="M81.4,158.5c0-0.8,0.9-1.4,1.1-1.5c1.7-1.4,3.2-3,4.6-4.7c4.3-5.2,7.7-11.1,9.9-17.4
						c1.3-4.5,2.2-9.1,2.5-13.8c0.2-1.7,0.3-4.2,0.5-7.7c-0.1-0.3-0.1-0.5-0.1-0.8c0-1.2,0.6-1.5,1-1.7c0.3-0.1,0.7-0.1,0.9,0.1
						c0.6,0.6,0.8,1.4,0.7,2.2c0,0.2,0,0.3,0,0.3c-0.1,2.3-0.4,6-0.7,8.3c-0.6,4.6-1.6,9.1-3,13.5c-2.2,6.5-5.4,12.5-9.5,17.9
						c-1.5,2-3.2,3.8-5.1,5.4c-0.4,0.4-1,0.7-1.6,0.7c-0.3,0-0.6-0.1-0.8-0.4C81.6,159,81.5,158.8,81.4,158.5z"/>
					<path class="st7" d="M87.4,157.9c0.1-0.7,0.5-1.3,1-1.7c5.7-5.7,10.1-12.1,12.4-18c1.6-4,2.1-9.4,2.4-12.3v-0.3
						c0.1-1.2,0.2-2.5,0.2-3.6c0-0.1,0-0.2,0-0.2c0-0.4,0.1-2,0.8-2.5c0.2-0.2,0.5-0.2,0.8-0.1c0.7,0.2,0.9,1.1,0.9,2.8
						c0,0.8-0.1,1.4-0.1,1.4c-0.1,1.2-0.2,2.5-0.4,3.8c-0.5,3.5-1.4,7-2.7,10.4c-3,7.5-7.3,14.4-12.9,20.2c-0.1,0.1-1.1,1.4-2.2,0.8
						C87.5,158.5,87.3,158.2,87.4,157.9"/>
					<path class="st8" d="M87.4,157.9c0.1-0.7,0.5-1.3,1-1.7c5.7-5.7,10.1-12.1,12.4-18c1.6-4,2.1-9.4,2.4-12.3v-0.3
						c0.1-1.2,0.2-2.5,0.2-3.6c0-0.1,0-0.2,0-0.2c0-0.4,0.1-2,0.8-2.5c0.2-0.2,0.5-0.2,0.8-0.1c0.7,0.2,0.9,1.1,0.9,2.8
						c0,0.8-0.1,1.4-0.1,1.4c-0.1,1.2-0.2,2.5-0.4,3.8c-0.5,3.5-1.4,7-2.7,10.4c-3,7.5-7.3,14.4-12.9,20.2c-0.1,0.1-1.1,1.4-2.2,0.8
						C87.5,158.5,87.4,158.2,87.4,157.9z"/>
					<path class="st7" d="M104.3,143.3L104.3,143.3c0.5,0.2,0.9,0.1,1.2-0.2c0.6-1.4,1.1-2.7,1.5-3.8c1-2.9,1.8-6,2.3-9.1
						c0.1-0.4,0.1-0.7,0.1-1.1c0.1-0.5-0.1-1-0.5-1.4c-0.2-0.2-0.5-0.2-0.8-0.1c-0.8,0.3-1.2,1.1-1.1,1.9c0,0.1,0,0.2,0,0.4l0,0
						c-0.3,3.6-1.1,7.2-2.4,10.6c-0.2,0.5-0.5,1.1-0.8,1.7C103.7,142.6,103.9,143.1,104.3,143.3"/>
					<path class="st8" d="M104.3,143.3L104.3,143.3c0.5,0.2,0.9,0.1,1.2-0.2c0.6-1.4,1.1-2.7,1.5-3.8c1-2.9,1.8-6,2.3-9.1
						c0.1-0.4,0.1-0.7,0.1-1.1c0.1-0.5-0.1-1-0.5-1.4c-0.2-0.2-0.5-0.2-0.8-0.1c-0.8,0.3-1.2,1.1-1.1,1.9c0,0.1,0,0.2,0,0.4l0,0
						c-0.3,3.6-1.1,7.2-2.4,10.6c-0.2,0.5-0.5,1.1-0.8,1.7C103.7,142.6,103.9,143.1,104.3,143.3z"/>
					<path class="st7" d="M100.6,151.5c1.4-1.9,2.7-3.9,3.8-6c0.2-0.4,0-1-0.4-1.2h-0.1c-0.4-0.2-1-0.1-1.3,0.3
						c-1.2,1.9-2.4,3.8-3.8,5.6c-0.6,0.5-0.9,1.2-1.1,2c0,0.3,0.1,0.5,0.3,0.7c0.2,0.2,0.4,0.2,0.7,0.2
						C99.5,153,100.4,151.9,100.6,151.5"/>
					<path class="st8" d="M100.6,151.5c1.4-1.9,2.7-3.9,3.8-6c0.2-0.4,0-1-0.4-1.2h-0.1c-0.4-0.2-1-0.1-1.3,0.3
						c-1.2,1.9-2.4,3.8-3.8,5.6c-0.6,0.5-0.9,1.2-1.1,2c0,0.3,0.1,0.5,0.3,0.7c0.2,0.2,0.4,0.2,0.7,0.2
						C99.4,152.9,100.4,151.8,100.6,151.5z"/>
					<path class="st7" d="M13.6,104.7c0.3,0.6,1.1,0.9,1.8,0.6l0.1-0.1c0.6-0.3,0.9-1.1,0.6-1.7l0,0c-3.2-7.1-5.3-14.6-6.3-22.3
						c0,0,0-0.1,0-0.2c0.1-0.7-0.1-1.4-0.5-1.9c-0.2-0.2-0.5-0.3-0.7-0.2c-0.4,0-1.1,0.3-1.1,1.8c0,0.2,0,0.5,0,0.7
						C8.2,89.4,10.3,97.3,13.6,104.7L13.6,104.7z"/>
					<path class="st8" d="M13.6,104.7c0.3,0.6,1.1,0.9,1.8,0.6l0.1-0.1c0.6-0.3,0.9-1.1,0.6-1.7l0,0c-3.2-7.1-5.3-14.6-6.3-22.3
						c0,0,0-0.1,0-0.2c0.1-0.7-0.1-1.4-0.5-1.9c-0.2-0.2-0.5-0.3-0.7-0.2c-0.4,0-1.1,0.3-1.1,1.8c0,0.2,0,0.5,0,0.7
						C8.2,89.4,10.3,97.3,13.6,104.7L13.6,104.7z"/>
					<path class="st7" d="M91.6,126.2L91.6,126.2c0.5,0.1,1-0.2,1.2-0.6c0.3-2.4,0.5-4.8,0.5-7.2c-0.1-8-1.5-15.9-4.3-23.5
						c-2-4.8-2.9-4.4-3.2-4.3c-0.3,0.1-0.5,0.5-0.5,0.8c0,1.2,1.4,4.1,1.6,4.4c2.8,7.4,4.2,15.2,4.3,23.1c0,2.1-0.1,4.2-0.4,6.3
						C90.8,125.8,91.1,126.1,91.6,126.2"/>
					<path class="st8" d="M91.6,126.2L91.6,126.2c0.5,0.1,1-0.2,1.2-0.6c0.3-2.4,0.5-4.8,0.5-7.2c-0.1-8-1.5-15.9-4.3-23.5
						c-2-4.8-2.9-4.4-3.2-4.3c-0.3,0.1-0.5,0.5-0.5,0.8c0,1.2,1.4,4.1,1.6,4.4c2.8,7.4,4.2,15.2,4.3,23.1c0,2.1-0.1,4.2-0.4,6.3
						C90.8,125.8,91.2,126.1,91.6,126.2z"/>
					<path class="st7" d="M57.8,161.8c4.3-1.1,8.4-2.7,12.2-4.8c5.7-3,15.9-9.8,20.5-22.2c0.7-1.9,1.2-3.8,1.6-5.7
						c0-0.5-0.3-0.9-0.8-1h-0.1c-0.4-0.1-0.8,0.1-1,0.5c-0.4,1.9-0.9,3.7-1.6,5.5c-4,10.8-13.1,17.3-20.1,20.8
						c-3.6,1.8-7.5,3.3-11.4,4.3c-0.6,0.1-2.6,0.5-2.6,1.6c0,0.2,0,0.3,0.1,0.5C55.4,162.7,57.6,161.9,57.8,161.8"/>
					<path class="st8" d="M57.8,161.8c4.3-1.1,8.4-2.7,12.2-4.8c5.7-3,15.9-9.8,20.5-22.2c0.7-1.9,1.2-3.8,1.6-5.7
						c0-0.5-0.3-0.9-0.8-1h-0.1c-0.4-0.1-0.8,0.1-1,0.5c-0.4,1.9-0.9,3.7-1.6,5.5c-4,10.8-13.1,17.3-20.1,20.8
						c-3.6,1.8-7.5,3.3-11.4,4.3c-0.6,0.1-2.6,0.5-2.6,1.6c0,0.2,0,0.3,0.1,0.5C55.4,162.7,57.6,161.9,57.8,161.8z"/>
					<path class="st7" d="M85.3,124.6c-1.7,11.3-7.9,20-17.2,24.7c-0.4,0.4-0.5,0.9-0.3,1.4v0.1c0.2,0.5,0.7,0.8,1.2,0.7
						c10.1-5.4,16.9-15.3,18.5-26.6c0.4-2.9,0.7-5.9,0.7-8.8c0-18.3-8.8-27.9-8.9-27.9c-0.4-0.6-2.7-3.7-4-3.9c-0.3,0-0.5,0-0.7,0.2
						c-0.2,0.1-0.3,0.4-0.3,0.6c0,1,2.3,3.6,3.3,4.7c0.1,0.1,8.3,9.2,8.3,26.4C86,118.9,85.7,121.7,85.3,124.6"/>
					<path class="st8" d="M85.3,124.6c-1.7,11.3-7.9,20-17.2,24.7c-0.4,0.4-0.5,0.9-0.3,1.4v0.1c0.2,0.5,0.7,0.8,1.2,0.7
						c10.1-5.4,16.9-15.3,18.5-26.6c0.4-2.9,0.7-5.9,0.7-8.8c0-18.3-8.8-27.9-8.9-27.9c-0.4-0.6-2.7-3.7-4-3.9c-0.3,0-0.5,0-0.7,0.2
						c-0.2,0.1-0.3,0.4-0.3,0.6c0,1,2.3,3.6,3.3,4.7c0.1,0.1,8.3,9.2,8.3,26.4C86,118.9,85.7,121.7,85.3,124.6z"/>
					<path class="st7" d="M51.4,156.2c4.4-0.2,8.8-1.1,13-2.6c0.5-0.3,0.7-1,0.5-1.5V152c-0.3-0.6-0.9-0.9-1.5-0.7l0,0
						c-3.6,1.2-7.3,1.8-11.1,2c-23.5,1-42.1-16.1-49.7-45.8c-0.2-0.7-0.3-1.2-0.3-1.6c-0.1-0.8-0.3-1.5-1.3-1.4
						c-0.4,0-0.9,0.3-0.9,1.4c0,0.7,0.1,1.4,0.3,2.1c3.8,15.9,10.3,28.3,19.4,36.7C28.3,152.7,39.8,156.8,51.4,156.2"/>
					<path class="st8" d="M51.4,156.2c4.4-0.2,8.8-1.1,13-2.6c0.5-0.3,0.7-1,0.5-1.5V152c-0.3-0.6-0.9-0.9-1.5-0.7l0,0
						c-3.6,1.2-7.3,1.8-11.1,2c-23.5,1-42.1-16.1-49.7-45.8c-0.2-0.7-0.3-1.2-0.3-1.6c-0.1-0.8-0.3-1.5-1.3-1.4
						c-0.4,0-0.9,0.3-0.9,1.4c0,0.7,0.1,1.4,0.3,2.1c3.8,15.9,10.3,28.3,19.4,36.7C28.3,152.7,39.8,156.8,51.4,156.2z"/>
					<path class="st7" d="M76.7,120.1c0,8.6-3.6,13.8-6.6,16.6c-4.9,4.6-13.1,6.9-20.4,6.3c-0.6,0-1.2,0.4-1.3,1v0.1
						c-0.1,0.6,0.3,1.2,0.9,1.4c0,0,0,0,0,0c7.7,0.5,16.3-2.2,21.8-7.3c2.8-2.6,7.6-8.6,7.6-19.1c0-1.7-0.1-3.3-0.3-5
						c-1.7-12.7-8.1-23.3-19.1-31.7l-0.8-0.5c-6.7-5.6-7.6-5.4-7.9-5.4c-0.2,0-0.4,0.2-0.4,0.3L50,77v0.1c0,0.7,1.1,1.7,4.4,4.4
						c1.1,0.8,2,1.7,2.6,2.2c0.3,0.3,0.7,0.6,1.3,1.1c4.2,3.5,15.5,12.7,18,30.4C76.6,116.8,76.7,118.4,76.7,120.1"/>
					<path class="st8" d="M76.7,120.1c0,8.6-3.6,13.8-6.6,16.6c-4.9,4.6-13.1,6.9-20.4,6.3c-0.6,0-1.2,0.4-1.3,1v0.1
						c-0.1,0.6,0.3,1.2,0.9,1.4c0,0,0,0,0,0c7.7,0.5,16.3-2.2,21.8-7.3c2.8-2.6,7.6-8.6,7.6-19.1c0-1.7-0.1-3.3-0.3-5
						c-1.7-12.7-8.1-23.3-19.1-31.7l-0.8-0.5c-6.7-5.6-7.6-5.4-7.9-5.4c-0.2,0-0.4,0.2-0.4,0.3L50,77v0.1c0,0.7,1.1,1.7,4.4,4.4
						c1.1,0.8,2,1.7,2.6,2.2c0.3,0.3,0.7,0.6,1.3,1.1c4.2,3.5,15.5,12.7,18,30.4C76.6,116.8,76.7,118.4,76.7,120.1z"/>
					<path class="st7" d="M28.4,80.5c0,0.2,1.6,17.5,12.8,26.1c3.4,2.5,7,4.6,10.9,6.4l0.3,0.2c5.1,2.5,8.5,4.2,8.5,6.9
						c0,0.4-0.1,0.7-0.2,1.1c-0.3,1.1-1.2,1.9-2.3,2.1c-4.4,1.2-15.9-4.3-21.6-8.7c-0.6-0.3-1.2-0.1-1.6,0.3l-0.1,0.1
						c-0.5,0.5-0.5,1.4,0,1.9l0,0c6.2,4.5,18.6,9.9,23.9,8.5c1.9-0.5,3.3-2,3.7-3.9c0.2-0.6,0.3-1.3,0.3-2c0-4.1-4.2-6.2-9.1-8.6
						c-3.7-1.7-7.2-3.7-10.5-6.1C34.1,97.5,31.1,84,30.6,81.4c-0.2-1.1-0.3-2.2-0.3-3.3c0-0.4,0-0.7,0-1s0-0.5,0-0.8
						c0-0.8,0-1.7-0.7-1.8c-0.2,0-0.5,0-0.7,0.2c-0.3,0.3-0.7,1-0.7,3.5C28.3,78.9,28.3,79.7,28.4,80.5"/>
					<path class="st8" d="M28.4,80.5c0,0.2,1.6,17.5,12.8,26.1c3.4,2.5,7,4.6,10.9,6.4l0.3,0.2c5.1,2.5,8.5,4.2,8.5,6.9
						c0,0.4-0.1,0.7-0.2,1.1c-0.3,1.1-1.2,1.9-2.3,2.1c-4.4,1.2-15.9-4.3-21.6-8.7c-0.6-0.3-1.2-0.1-1.6,0.3l-0.1,0.1
						c-0.5,0.5-0.5,1.4,0,1.9l0,0c6.2,4.5,18.6,9.9,23.9,8.5c1.9-0.5,3.3-2,3.7-3.9c0.2-0.6,0.3-1.3,0.3-2c0-4.1-4.2-6.2-9.1-8.6
						c-3.7-1.7-7.2-3.7-10.5-6.1C34.1,97.5,31.1,84,30.6,81.4c-0.2-1.1-0.3-2.2-0.3-3.3c0-0.4,0-0.7,0-1s0-0.5,0-0.8
						c0-0.8,0-1.7-0.7-1.8c-0.2,0-0.5,0-0.7,0.2c-0.3,0.3-0.7,1-0.7,3.5C28.3,78.9,28.3,79.6,28.4,80.5z"/>
					<path class="st7" d="M32,113.3c0.6,0.5,1.5,0.4,2-0.1c0,0,0,0,0,0l0.1-0.1c0.4-0.5,0.5-1.2,0.1-1.7
						C28.7,106.2,23.1,100.2,18,79c0-0.8-0.2-1.7-0.8-2.3c-0.2-0.2-0.5-0.2-0.7-0.2c-0.4,0.1-0.9,0.4-0.9,1.6c0,0.5,0.1,0.9,0.2,1.4
						C20.9,100.8,26,107.6,32,113.3L32,113.3z"/>
					<path class="st8" d="M32,113.3c0.6,0.5,1.5,0.4,2-0.1c0,0,0,0,0,0l0.1-0.1c0.4-0.5,0.5-1.2,0.1-1.7
						C28.7,106.2,23.1,100.2,18,79c0-0.8-0.2-1.7-0.8-2.3c-0.2-0.2-0.5-0.2-0.7-0.2c-0.4,0.1-0.9,0.4-0.9,1.6c0,0.5,0.1,0.9,0.2,1.4
						C20.9,100.8,26,107.6,32,113.3L32,113.3z"/>
					<path class="st7" d="M23.3,125.5L23.3,125.5c0.4-0.5,0.5-1.1,0.2-1.5c-6.2-6.8-11-14.8-14.2-23.4C5.2,89.2,5.8,85.9,5.8,84.8
						c0-0.2,0-0.3,0-0.5V84c0-0.2,0-0.5,0-0.8c0-0.7-0.1-1.7-0.9-2c-0.3-0.1-0.6-0.1-0.8,0.1c-0.5,0.4-0.7,1.4-0.7,2.8v0.4
						c0,2.3,0.5,8.1,3.5,16.7c3.3,9,8.2,17.3,14.5,24.5C22,126,22.7,126,23.3,125.5"/>
					<path class="st8" d="M23.3,125.5L23.3,125.5c0.4-0.5,0.5-1.1,0.2-1.5c-6.2-6.8-11-14.8-14.2-23.4C5.2,89.2,5.8,85.9,5.8,84.8
						c0-0.2,0-0.3,0-0.5V84c0-0.2,0-0.5,0-0.8c0-0.7-0.1-1.7-0.9-2c-0.3-0.1-0.6-0.1-0.8,0.1c-0.5,0.4-0.7,1.4-0.7,2.8v0.4
						c0,2.3,0.5,8.1,3.5,16.7c3.3,9,8.2,17.3,14.5,24.5C22,126.1,22.8,126,23.3,125.5C23.2,125.6,23.2,125.5,23.3,125.5z"/>
					<path class="st7" d="M33,79v0.2c0.5,4.4,1.7,7.7,4,12.5c0.4,0.6,1.2,0.7,1.8,0.4l0.1-0.1c0.6-0.3,0.4-1,0.1-1.6
						c-2-3.3-2.7-5.3-3.8-10.5v-0.1c0-0.3,0-0.9-0.1-1.6c0-2.4-0.1-3.5-0.6-3.8c-0.2-0.1-0.4-0.1-0.7,0c-0.6,0.3-0.8,1.2-0.8,3.3
						C32.9,78.2,32.9,78.6,33,79"/>
					<path class="st8" d="M33,79v0.2c0.5,4.4,1.7,7.7,4,12.5c0.4,0.6,1.2,0.7,1.8,0.4l0.1-0.1c0.6-0.3,0.4-1,0.1-1.6
						c-2-3.3-2.7-5.3-3.8-10.5v-0.1c0-0.3,0-0.9-0.1-1.6c0-2.4-0.1-3.5-0.6-3.8c-0.2-0.1-0.4-0.1-0.7,0c-0.6,0.3-0.8,1.2-0.8,3.3
						C33,78.2,33,78.6,33,79z"/>
					<path class="st7" d="M68.3,113.3c0,0,1.1-0.4,0.6-1.7c-2.6-6.1-7-11.2-12.6-14.8c-1-0.6-11.8-5.2-15-14.5
						c-0.5-1.3-0.8-2.7-0.9-4.2c0-0.6,0-1.2-0.8-1.4c-0.2-0.1-0.5,0-0.7,0.1c-0.3,0.2-0.4,0.7-0.4,1.3c0,1.7,0.4,3.4,1,5
						c4.1,9.6,7.6,11.9,13.6,15.7l0.8,0.5c6.1,3.8,10.5,8.5,12.9,13.4C67.2,113.3,67.7,113.4,68.3,113.3"/>
					<path class="st8" d="M68.3,113.3c0,0,1.1-0.4,0.6-1.7c-2.6-6.1-7-11.2-12.6-14.8c-1-0.6-11.8-5.2-15-14.5
						c-0.5-1.3-0.8-2.7-0.9-4.2c0-0.6,0-1.2-0.8-1.4c-0.2-0.1-0.5,0-0.7,0.1c-0.3,0.2-0.4,0.7-0.4,1.3c0,1.7,0.4,3.4,1,5
						c4.1,9.6,7.6,11.9,13.6,15.7l0.8,0.5c6.1,3.8,10.5,8.5,12.9,13.4C67.2,113.3,67.8,113.5,68.3,113.3z"/>
					<path class="st7" d="M53.9,134.8c5.6,0.2,10.5-0.9,14-5.3c1.9-2.6,2.9-5.8,2.8-9.1c0-0.9-0.4-4.2-0.4-4.2
						c-0.2-0.6-0.3-1-0.8-0.8h-0.1c-0.6,0.2-0.9,0.8-0.7,1.3l0,0c0.3,1.5,0.4,3.1,0.5,4.7c0,2.7-0.9,5.2-2.6,7.3
						c-2.4,3.1-7,4.1-12.4,3.9c-4.4-0.2-8.7-1.7-11.9-2.7h0c-7.5-3.2-17.3-10.5-24.1-22.3c-0.4-0.5-1.1-0.7-1.6-0.4h-0.1
						c-0.6,0.3-0.9,1-0.8,1.7C26.2,127.9,45.2,134.4,53.9,134.8"/>
					<path class="st8" d="M53.9,134.8c5.6,0.2,10.5-0.9,14-5.3c1.9-2.6,2.9-5.8,2.8-9.1c0-0.9-0.4-4.2-0.4-4.2
						c-0.2-0.6-0.3-1-0.8-0.8h-0.1c-0.6,0.2-0.9,0.8-0.7,1.3l0,0c0.3,1.5,0.4,3.1,0.5,4.7c0,2.7-0.9,5.2-2.6,7.3
						c-2.4,3.1-7,4.1-12.4,3.9c-4.4-0.2-8.7-1.7-11.9-2.7h0c-7.5-3.2-17.3-10.5-24.1-22.3c-0.4-0.5-1.1-0.7-1.6-0.4h-0.1
						c-0.6,0.3-0.9,1-0.8,1.7C26.2,127.9,45.1,134.4,53.9,134.8z"/>
					<path class="st7" d="M40.1,93.9L40.1,93.9c-0.7,0.4-0.9,1.2-0.7,1.8c1.1,1.5,2.3,3,3.6,4.4c4,4.4,8.2,6.8,11.9,8.9l0.2,0.1
						c5.1,3,9.5,5.5,9.5,11c0,0.4,0,0.9-0.1,1.3c-0.2,2.2-1.3,4.1-3.2,5.2l0,0c-0.5,0.1-0.7,0.6-0.7,1.1v0.1c0.1,0.4,0.5,0.7,1,0.6
						c0,0,0.1,0,0.1,0c2.6-1.5,4.3-4.1,4.5-7.1c0.1-0.6,0.1-1.2,0.1-1.9c0-6.6-4.5-9.7-9.9-12.8c-3.6-2.1-7.6-4.4-11.3-8.5
						c-1.2-1.4-2.3-2.7-3.3-3.9l0,0C41.5,93.7,40.7,93.5,40.1,93.9"/>
					<path class="st8" d="M40.1,93.9L40.1,93.9c-0.7,0.4-0.9,1.2-0.7,1.8c1.1,1.5,2.3,3,3.6,4.4c4,4.4,8.2,6.8,11.9,8.9l0.2,0.1
						c5.1,3,9.5,5.5,9.5,11c0,0.4,0,0.9-0.1,1.3c-0.2,2.2-1.3,4.1-3.2,5.2l0,0c-0.5,0.1-0.7,0.6-0.7,1.1v0.1c0.1,0.4,0.5,0.7,1,0.6
						c0,0,0.1,0,0.1,0c2.6-1.5,4.3-4.1,4.5-7.1c0.1-0.6,0.1-1.2,0.1-1.9c0-6.6-4.5-9.7-9.9-12.8c-3.6-2.1-7.6-4.4-11.3-8.5
						c-1.2-1.4-2.3-2.7-3.3-3.9l0,0C41.5,93.7,40.7,93.6,40.1,93.9z"/>
					<path class="st7" d="M59.3,128.8L59.3,128.8c-0.1-0.6-0.6-0.9-1.1-0.8l0,0c-5.7,0.1-14.9-2.9-19.3-5.4
						c-3.4-1.9-20.6-13.1-24.8-44.2c0-0.1,0-0.2,0-0.4c0-1.8-0.6-2.2-1.2-2.2c-0.3,0-0.5,0.1-0.7,0.3c-0.4,0.5-0.5,1.1-0.5,1.6
						c0,0.3,0,0.7,0.1,1c4.4,33.2,23.9,45.1,26.1,46.3c5.7,3.2,14.9,5.5,20.8,4.8C59.1,129.8,59.4,129.3,59.3,128.8"/>
					<path class="st8" d="M59.3,128.8L59.3,128.8c-0.1-0.6-0.6-0.9-1.1-0.8l0,0c-5.7,0.1-14.9-2.9-19.3-5.4
						c-3.4-1.9-20.6-13.1-24.8-44.2c0-0.1,0-0.2,0-0.4c0-1.8-0.6-2.2-1.2-2.2c-0.3,0-0.5,0.1-0.7,0.3c-0.4,0.5-0.5,1.1-0.5,1.6
						c0,0.3,0,0.7,0.1,1c4.4,33.2,23.9,45.1,26.1,46.3c5.7,3.2,14.9,5.5,20.8,4.8C59.1,129.8,59.4,129.3,59.3,128.8z"/>
					<path class="st7" d="M60.4,94.2l0.2-0.2c0.5-0.6,0.4-1.5-0.2-2.1l0,0c-2.9-2.5-5.9-4.8-9.1-6.9c-1.3-0.9-2.3-1.6-2.8-2.1
						c-1.4-1.3-2.4-2.9-3.1-4.6c-0.6-1.4-1.2-2.5-2.2-2.2c-0.2,0-0.6,0.2-0.6,1c0,1.2,1.1,3.8,2.6,5.9s4.3,4.3,7.7,7
						c1.7,1.3,3.5,2.8,5.3,4.3C58.9,94.7,59.8,94.7,60.4,94.2"/>
					<path class="st8" d="M60.4,94.2l0.2-0.2c0.5-0.6,0.4-1.5-0.2-2.1l0,0c-2.9-2.5-5.9-4.8-9.1-6.9c-1.3-0.9-2.3-1.6-2.8-2.1
						c-1.4-1.3-2.4-2.9-3.1-4.6c-0.6-1.4-1.2-2.5-2.2-2.2c-0.2,0-0.6,0.2-0.6,1c0,1.2,1.1,3.8,2.6,5.9s4.3,4.3,7.7,7
						c1.7,1.3,3.5,2.8,5.3,4.3C58.9,94.7,59.8,94.7,60.4,94.2z"/>
					<path class="st7" d="M65.8,137.1c7.8-5.1,8.8-11.2,8.8-18.6c0-3.6-0.7-7.2-1.9-10.7c-1.3-3.8-5.1-9.3-7.8-12.4
						c-0.6-0.5-1.5-0.4-2.1,0.1l-0.1,0.1c-0.5,0.6-0.5,1.5,0.2,2.1l0,0c2.5,2.8,6.1,8,7.3,11.4c1.4,3.6,2.1,7.5,2.3,11.4
						c0,5.7-1.2,10-6.7,14.2c-6.2,4.7-23.7,4.8-39.1-8l0,0c-0.5-0.4-1.2-0.4-1.7,0.1l-0.1,0.1c-0.4,0.5-0.4,1.2,0,1.7l0,0
						c15.6,13.5,33.1,13.7,41.1,8.6"/>
					<path class="st8" d="M65.8,137.1c7.8-5.1,8.8-11.2,8.8-18.6c0-3.6-0.7-7.2-1.9-10.7c-1.3-3.8-5.1-9.3-7.8-12.4
						c-0.6-0.5-1.5-0.4-2.1,0.1l-0.1,0.1c-0.5,0.6-0.5,1.5,0.2,2.1l0,0c2.5,2.8,6.1,8,7.3,11.4c1.4,3.6,2.1,7.5,2.3,11.4
						c0,5.7-1.2,10-6.7,14.2c-6.2,4.7-23.7,4.8-39.1-8l0,0c-0.5-0.4-1.2-0.4-1.7,0.1l-0.1,0.1c-0.4,0.5-0.4,1.2,0,1.7l0,0
						C40.3,142,57.9,142.2,65.8,137.1z"/>
					<path class="st7" d="M66.6,82.1c-0.4-0.4-0.9-0.8-1.3-1.2c-1.8-1.6-2.8-2.4-3.5-2.3c-0.2,0-0.4,0.2-0.6,0.4
						c-0.1,0.1-0.1,0.3-0.1,0.5c0,0.6,0.6,1.1,1.4,1.7c0.7,0.6,1.4,1.2,2,1.8c0.1,0.1,0.3,0.3,0.5,0.6c5,4.9,9.1,10.6,12.1,16.9
						c0.3,0.6,0.9,0.8,1.5,0.6h0.1c0.6-0.2,0.9-0.9,0.7-1.5l0,0"/>
					<path class="st8" d="M66.6,82.1c-0.4-0.4-0.9-0.8-1.3-1.2c-1.8-1.6-2.8-2.4-3.5-2.3c-0.2,0-0.4,0.2-0.6,0.4
						c-0.1,0.1-0.1,0.3-0.1,0.5c0,0.6,0.6,1.1,1.4,1.7c0.7,0.6,1.4,1.2,2,1.8c0.1,0.1,0.3,0.3,0.5,0.6c5,4.9,9.1,10.6,12.1,16.9
						c0.3,0.6,0.9,0.8,1.5,0.6h0.1c0.6-0.2,0.9-0.9,0.7-1.5l0,0"/>
					<path class="st7" d="M69.5,145.2c7.2-4.1,12.1-11.3,13.3-19.5c1.1-7.1,0.5-14.4-1.6-21.3c-0.3-0.5-0.9-0.7-1.4-0.5h-0.1
						c-0.5,0.2-0.8,0.8-0.7,1.3c1.6,4.8,3.1,13.6,1.8,20.5c-1.6,7.8-5.6,13.8-12.4,17.5c-11.5,6.2-23.7,5.4-31,2
						c-12.5-6-22.6-16.2-28.4-28.8c7.8,13.5,20.4,23.6,35.2,28.3c0.7,0.1,1.3-0.3,1.5-1v-0.1c0.1-0.6-0.2-1.2-0.8-1.4
						c-10-3-33.6-13.8-42.1-47.3c0-0.8-0.3-1.7-0.8-2.3c-0.2-0.2-0.4-0.2-0.7-0.2c-0.6,0.1-0.9,0.7-0.9,1.8c0,0.4,0.1,0.8,0.1,1.1
						c4.5,32.9,24.3,47.1,35.7,52.7C44.4,151.7,57.4,152.4,69.5,145.2"/>
					<path class="st8" d="M69.5,145.2c7.2-4.1,12.1-11.3,13.3-19.5c1.1-7.1,0.5-14.4-1.6-21.3c-0.3-0.5-0.9-0.7-1.4-0.5h-0.1
						c-0.5,0.2-0.8,0.8-0.7,1.3c1.6,4.8,3.1,13.6,1.8,20.5c-1.6,7.8-5.6,13.8-12.4,17.5c-11.5,6.2-23.7,5.4-31,2
						c-12.5-6-22.6-16.2-28.4-28.8c7.8,13.5,20.4,23.6,35.2,28.3c0.7,0.1,1.3-0.3,1.5-1v-0.1c0.1-0.6-0.2-1.2-0.8-1.4
						c-10-3-33.6-13.8-42.1-47.3c0-0.8-0.3-1.7-0.8-2.3c-0.2-0.2-0.4-0.2-0.7-0.2c-0.6,0.1-0.9,0.7-0.9,1.8c0,0.4,0.1,0.8,0.1,1.1
						c4.5,32.9,24.3,47.1,35.7,52.7C44.4,151.7,57.4,152.4,69.5,145.2z"/>
				</g>
			</g>
			<polygon class="st9" points="273.9,116.2 273.4,113.6 275.3,113.2 275.8,115.8 			"/>
			<path class="st9" d="M276.4,109.3c-0.7-3.9,0.6-6.8,4.2-7.4s6.2,1.5,6.9,5.4s-0.8,6.7-4.4,7.3S277.2,113.3,276.4,109.3
				 M278.4,109c0.6,3.1,2,4.5,4.4,4.1s3.4-2.1,2.8-5.3s-2.2-4.7-4.6-4.2C278.3,104,277.9,105.9,278.4,109"/>
			<path class="st9" d="M293.4,112.7l-1.9,0.3l-2.3-12.4l1.2-0.2l0.6,1.4c1.3-1.4,2.1-2.2,3.6-2.4c0.4-0.1,0.8-0.1,1.1,0v1.8
				c-0.4,0-0.9,0-1.3,0.1c-1.1,0.3-2.1,1-2.8,2L293.4,112.7z"/>
			<path class="st9" d="M307.1,109.1c-0.9,1-2.1,1.7-3.5,2c-3.3,0.6-5.1-1.7-5.8-5.6c-0.9-5,1.5-6.9,3.9-7.3
				c1.4-0.3,2.9,0.2,3.9,1.2l0.4-1.7l1.1-0.2l2.4,13.1c0.7,3.7-1.2,5.7-4.1,6.2c-1.4,0.2-2.9,0.1-4.3-0.2l0.1-1.4
				c1.3,0.2,2.6,0.2,3.9,0c1.5-0.3,3-1.5,2.5-4.1l-0.4-2.2L307.1,109.1z M306.1,102.5c-0.3-1.8-1.9-3-3.7-2.8
				c-2.7,0.5-3.3,2.2-2.7,5.4s1.9,4.7,3.7,4.4c1.4-0.3,2.7-1.1,3.5-2.3L306.1,102.5z"/>
			<polygon class="st9" points="312.5,109.3 312,106.7 314,106.4 314.4,109 			"/>
			<path class="st9" d="M318.6,114.4l-3.4-18.3l1.1-0.2l0.9,1.3c0.9-1.2,2.3-2,3.8-2.4c3.3-0.6,5,1.7,5.8,5.6c0.9,5-1.4,6.9-3.9,7.3
				c-1.3,0.2-2.6,0-3.7-0.6l1.3,6.9L318.6,114.4z M318.9,105.4c0.9,0.7,2.1,0.9,3.3,0.8c2.7-0.5,3.3-2.2,2.7-5.4s-2.1-4.7-3.7-4.4
				c-1.4,0.3-2.7,1.2-3.5,2.4L318.9,105.4z"/>
			<path class="st9" d="M326.4,94.1l2.2-0.4l5.2,9.8l1.3-11l2.1-0.4l-2.1,13.2c-0.5,3.4-1.5,5.2-3.4,6.7l-1-1.2
				c1.4-1.2,2.3-3,2.3-4.9L326.4,94.1z"/>
			<path class="st10" d="M139.9,76.2l-4.6-8.7l-10.7,1.9l-1.3,9.7l-3.4,0.6l4.5-30.7l3.9-0.7l15.2,27.3L139.9,76.2z M126.9,51.7
				l-2.1,14.8l9.2-1.6L126.9,51.7z"/>
			<path class="st10" d="M179.6,69.5l-1.7,2.4l-4.8-3.5c-1.7,1.9-4.1,3.1-6.6,3.5c-8.2,1.4-13.1-4.8-14.5-13s1.1-15.4,9.1-16.8
				s13.1,4.5,14.6,12.6c0.7,4.1,0.5,8.3-1,11.3L179.6,69.5z M172,64.2c1-2.4,1-5.8,0.4-9.1c-1.1-5.9-5-11.4-10.8-10.4
				c-6.3,1.1-7.5,7.6-6.4,13.6c1.2,6.5,4.9,11.8,10.9,10.8c1.7-0.3,3.3-1.1,4.5-2.4l-4.4-3.2l1.8-2.4L172,64.2z"/>
			<path class="st10" d="M191.6,45.8l3.2-0.6l3.8,20.7l-1.9,0.3l-1.5-2.3c-1.6,2-3.8,3.4-6.3,3.9c-3.7,0.6-6.5-1.3-7.3-5.7L179,48
				l3.2-0.5l2.5,13.7c0.6,3.2,1.6,4.5,4.2,4c2.3-0.6,4.2-2,5.5-3.9L191.6,45.8z"/>
			<path class="st10" d="M203.3,39l-3.2,0.6l-0.7-3.7l3.2-0.6L203.3,39z M201,44.2l3.2-0.6l3.8,20.7l-3.2,0.6L201,44.2z"/>
			<path class="st10" d="M213.4,53.4c1.1,5.8,4.8,6.7,8.1,6.1c2.2-0.4,3.3-1,5.6-2.2l1,2.3c-2,1.2-4.1,2.1-6.4,2.6
				c-5.5,1-10.2-1.3-11.6-8.9c-1.2-6.8,1.8-11.4,6.9-12.3s8.7,2.1,9.6,7.5c0.1,0.8,0.3,1.8,0.4,2.5L213.4,53.4z M223.6,49.2
				c-0.7-3.7-2.3-6.2-6.1-5.5s-4.8,4-4.3,7.3L223.6,49.2z M213.4,38.1l3.8-6.7l3.4,0.7l-4.6,6.4L213.4,38.1z"/>
			<path class="st10" d="M237,59.4l-3.2,0.5L230,39.2l2-0.4l0.9,2c1.5-1.9,3.6-3.2,6-3.6c3.8-0.7,7.2,1.1,8.1,5.6l2.6,14.4l-3.2,0.5
				l-2.5-13.5c-0.6-3.2-2.3-4.8-5.2-4.3c-1.9,0.3-3.6,1.4-4.8,2.9L237,59.4z"/>
			<path class="st10" d="M255.8,46.1c1,5.8,4.8,6.7,8.1,6.1c2.2-0.4,3.3-1,5.6-2.2l0.9,2.3c-2,1.3-4.1,2.1-6.4,2.6
				c-5.5,1-10.2-1.3-11.6-8.9c-1.2-6.8,1.8-11.4,6.9-12.3s8.7,2.1,9.6,7.5c0.1,0.7,0.3,1.8,0.4,2.5L255.8,46.1z M266,41.9
				c-0.7-3.7-2.3-6.2-6.1-5.5s-4.8,4-4.3,7.3L266,41.9z"/>
			<path class="st10" d="M284.6,44.6c-0.9-5-11.4-1.1-12.5-7.5c-0.6-3.5,1.5-5.9,5.7-6.6c1.9-0.3,3.9-0.3,5.8,0l-0.1,2.8
				c-1.7-0.3-3.4-0.3-5.2-0.1c-2.6,0.5-3.4,1.5-3,3.5c0.7,3.7,11.3,0.5,12.6,7.7c0.7,3.9-1.8,6.8-6.8,7.6c-2.3,0.3-4.6,0.2-6.7-0.5
				l0.3-2.5c1.9,0.4,3.8,0.5,5.7,0.3C283.4,48.8,285.1,47.1,284.6,44.6"/>
			<g>
				<g>
					<defs>
						<rect id="SVGID_3_" x="160" y="62.4" width="174.9" height="51.2"/>
					</defs>
					<clipPath id="SVGID_4_">
						<use xlink:href="#SVGID_3_"  style="overflow:visible;"/>
					</clipPath>
					<g class="st11">
						<polygon class="st10" points="165.7,113.6 160,82.3 179.2,79 180.1,84.1 167.6,86.3 168.8,92.9 180.1,90.9 181.1,96.1 
							169.7,98.1 171.4,107.3 183.9,105.1 184.8,110.3 						"/>
						<polygon class="st10" points="189.9,109.4 184.2,78.1 190.2,77.1 195.9,108.4 						"/>
						<path class="st10" d="M211.3,106c-7.1,1.2-11.4-1.7-12.9-9.5s1.5-12.3,8.1-13.5c5.3-0.9,9.7,1.6,10.9,8.3
							c0.2,1.1,0.4,2.3,0.4,3.5l-13.3,2.3c0.7,3.7,3.2,4.7,6.4,4.2c2.2-0.5,4.4-1.2,6.4-2.2l1.7,3.8
							C216.7,104.4,214.1,105.5,211.3,106 M211.6,91.4c-0.5-2.6-1.9-4.4-4.6-3.9s-3.5,3-3.1,5.6l7.8-1.3L211.6,91.4z"/>
						<path class="st10" d="M235.9,98.8c-2.6,2.7-4.4,3.7-6.3,4c-4.5,0.8-8.2-2.4-9.6-10c-1.5-8.1,1.5-12.4,6.3-13.3
							c1.7-0.3,3.5,0,5.9,1.3l0.6-2l5.1-0.9l4.3,23.8c1.4,7.9-5.2,10.2-8.3,10.8c-3.1,0.6-6.3,0.6-9.3,0l0.1-4.3
							c2.4,0.3,4.7,0.3,7.1-0.1c2.3-0.4,5.6-1.2,4.9-5.1L235.9,98.8z M233.1,85.7c-1.4-0.9-3-1.3-4.6-1.2c-2.2,0.4-3.3,2.7-2.5,7.2
							c0.8,4.2,2.5,6,4.6,5.7c1.6-0.5,3.1-1.4,4.1-2.7L233.1,85.7z"/>
						<path class="st10" d="M243.3,73.6l-1-5.6l6-1l1,5.6L243.3,73.6z M248,99.3L243.9,77l6-1l4,22.3L248,99.3z"/>
						<path class="st10" d="M260,97.2L256,74.9L261,74l1.1,1.9c2.4-2.4,3.9-3.2,6.4-3.6c2.2-0.5,4.4,0.4,5.7,2.2
							c3.1-3.2,4.7-4,7.1-4.4c3.7-0.6,6.6,1.6,7.6,6.9l2.7,14.8l-6,1l-2.4-13.2c-0.4-2.3-1.5-4-3.3-3.7c-1.2,0.2-2.5,1.1-4,2.8
							l2.8,15.3l-6,1l-2.4-13.2c-0.4-2.3-1.4-4-3.2-3.7c-1.5,0.4-2.9,1.4-3.8,2.7l2.8,15.4L260,97.2z"/>
						<path class="st10" d="M293.6,79.9c-1.3-7.1,1.5-12.2,8.2-13.4s11.7,2.6,13,9.7s-1.6,12.1-8.8,13.4
							C299.3,90.8,294.9,87,293.6,79.9 M303,71.1c-3.4,0.6-4.1,3.5-3.4,7.6s2.5,6.5,5.9,5.9s4-3.4,3.2-7.5S306.3,70.6,303,71.1"/>
						<path class="st10" d="M328.9,78.3c-0.8-4.5-10.9-0.2-12.2-7.4c-0.8-4.3,1.7-7.3,6.6-8.2c2.4-0.4,4.8-0.4,7.2,0l-0.2,4.9
							c-2-0.4-4.1-0.5-6.1-0.2c-1.6,0.3-1.9,0.8-1.8,1.7c0.6,3.2,10.8-0.3,12.2,7.6c0.9,4.7-2,8.2-7.8,9.2c-2.7,0.4-5.4,0.2-7.9-0.6
							l0.5-4.5c2.1,0.6,4.3,0.7,6.4,0.4C328,80.9,329.2,79.8,328.9,78.3"/>
					</g>
				</g>
			</g>
		</g>
	</g>
</g>
</svg>
